<svg width="73" height="73" viewBox="0 0 73 73" fill="none" xmlns="http://www.w3.org/2000/svg">
    <path d="M0.0947266 38.7307C0.0947266 37.2619 0.0947266 35.7931 0.0947266 34.3243C0.234918 33.2611 0.369426 32.196 0.51909 31.1328C1.00218 27.6967 2.01952 24.4256 3.48206 21.2814C5.458 17.0304 8.17279 13.3329 11.5677 10.1015C14.1215 7.66996 16.9764 5.68567 20.0985 4.09558C24.041 2.08665 28.2486 0.904032 32.6362 0.362C32.7669 0.784633 33.1743 0.71072 33.4603 0.759995C36.4328 1.26223 39.2972 2.11887 42.0423 3.35834C47.0286 5.60796 51.2893 8.82036 54.8604 12.9766C57.3649 15.8895 59.32 19.1247 60.8185 22.646C62.5084 26.6164 63.3268 30.7916 63.5958 35.0767C63.7284 37.1766 63.5807 39.2822 63.2927 41.3631C62.7547 45.2692 61.6824 49.0236 59.8978 52.5582C59.1078 52.0484 58.3159 51.5386 57.4122 51.2467C55.9592 50.7767 54.508 50.3029 53.0455 49.8632C52.0584 49.5675 51.1093 49.143 50.0825 48.9857C49.8703 48.836 49.6733 48.6559 49.444 48.5422C47.3298 47.4923 45.2118 46.4499 43.09 45.4151C42.9706 45.3564 42.8153 45.1593 42.6808 45.4132C42.6353 45.3715 42.5917 45.3298 42.5462 45.29C42.5462 43.8591 42.5462 42.4301 42.5462 40.9993C42.622 40.715 42.8854 40.6164 43.0919 40.4743C44.3517 39.6025 45.3425 38.49 46.1344 37.1823C46.9888 35.7703 47.5458 34.2655 47.6973 32.6167C47.758 31.9553 47.9929 31.5156 48.7545 31.364C49.6847 31.1782 50.1014 30.5282 50.1033 29.5578C50.1071 28.307 50.0958 27.0561 50.092 25.8053C50.0976 23.3453 50.1185 20.8853 50.1033 18.4234C50.092 16.604 48.7166 15.2186 46.8903 15.1371C45.9639 15.0954 45.6267 14.7789 45.5338 13.8692C45.3633 12.1938 44.3574 11.015 42.855 10.7326C42.6296 10.5602 42.3606 10.5886 42.1029 10.5886C38.2704 10.5962 34.436 10.564 30.6053 10.6303C26.3276 10.7042 22.91 13.9621 22.8323 18.0065C22.783 20.6086 22.8266 23.2145 22.8285 25.8167C22.8266 27.0713 22.8171 28.3259 22.8228 29.5806C22.8266 30.5111 23.2491 31.1839 24.1433 31.3431C25.0412 31.5042 25.3406 31.9515 25.2421 32.793C25.2288 32.9048 25.2705 33.0261 25.2932 33.1417C25.8635 36.174 27.3241 38.6511 29.8646 40.4477C30.2227 40.6998 30.378 40.9898 30.3666 41.4503C30.3363 42.7277 30.3704 44.007 30.378 45.2843C30.3325 45.326 30.289 45.3677 30.2435 45.4094C29.9934 45.1498 29.821 45.4322 29.6448 45.5175C27.9038 46.3608 26.1685 47.2175 24.4331 48.0722C23.8837 48.3432 23.304 48.5593 22.8436 48.9838C20.0815 49.7684 17.2966 50.5114 14.6557 51.6371C12.244 52.6643 10.8364 54.6429 10.2264 57.1749C9.8854 58.5926 10.0995 60.0443 10.0085 61.479C8.17279 59.6842 6.66857 57.6298 5.3557 55.437C2.65228 50.9188 0.911248 46.0709 0.341009 40.8097C0.272808 40.1199 0.405421 39.394 0.0947266 38.7307Z" fill="#CDE1F4"/>
    <path d="M62.9233 61.4771C61.8946 62.7886 60.6253 63.8499 59.339 64.8847C53.5873 69.5128 47.0267 72.1661 39.6742 72.8446C39.5416 72.856 39.3825 72.8124 39.3105 72.9867C38.7422 72.9867 38.1738 72.9867 37.6055 72.9867C38.5508 72.0846 39.4943 71.1825 40.4396 70.2823C41.1235 70.449 41.6407 70.0056 42.1844 69.7535C45.3672 68.2828 48.332 66.4748 50.971 64.1323C53.6176 61.786 55.9554 59.1858 57.8499 56.1989C58.5812 55.0466 59.2272 53.8412 59.913 52.6605C61.3016 53.7408 62.1428 55.1717 62.6183 56.8452C63.054 58.3689 62.821 59.9325 62.9233 61.4771Z" fill="#427194"/>
    <path d="M40.4396 70.2823C39.4943 71.1844 38.5508 72.0865 37.6055 72.9868C37.416 72.9868 37.2266 72.9868 37.0371 72.9868C37.2379 72.5243 37.4368 72.0619 37.6377 71.5995L37.6187 71.5881C37.6585 71.535 37.6983 71.4838 37.7381 71.4308C38.6853 69.6227 39.5265 67.7692 40.2142 65.8456C41.8642 61.8732 43.1695 57.8061 43.6886 53.5153C43.9482 52.1394 43.9216 50.7502 43.808 49.3704C43.6962 47.9869 43.3931 46.6338 42.6827 45.4094C42.8191 45.1536 42.9725 45.3526 43.0919 45.4113C45.2137 46.448 47.3317 47.4885 49.4459 48.5384C49.6752 48.6522 49.8722 48.8322 50.0844 48.9819C50.1772 49.5183 50.0522 50.0034 49.787 50.4791C49.4403 51.0989 49.1371 51.7433 48.8208 52.3782C48.2145 53.5949 48.2903 54.0459 49.2603 55.0201C50.5845 56.3505 50.6546 56.7599 49.8438 58.4504C48.4362 61.3842 46.3561 63.8329 44.2532 66.272C43.0483 67.6726 41.6786 68.9139 40.4396 70.2823Z" fill="#395F7E"/>
    <path d="M22.8531 48.9838C23.3134 48.5593 23.8931 48.3432 24.4425 48.0722C26.1779 47.2174 27.9132 46.3608 29.6542 45.5174C29.8304 45.4322 30.0028 45.1498 30.2529 45.4094C30.1373 45.6406 30.0085 45.8643 29.91 46.1012C28.9078 48.5517 28.9173 51.0894 29.2564 53.6555C29.7963 57.8951 31.0865 61.9206 32.7214 65.8493C33.4943 67.9625 34.4151 70.0112 35.4779 71.9936C35.6181 72.3234 35.7601 72.6532 35.9003 72.9829C35.6635 72.9829 35.4267 72.9829 35.1899 72.9829C35.0099 72.6873 34.7693 72.4523 34.4757 72.2722C34.3885 72.1604 34.3147 72.0391 34.2161 71.9406C31.9788 69.6985 29.6864 67.5114 27.6461 65.0799C26.0036 63.1221 24.4179 61.1227 23.2793 58.8181C22.315 56.8698 22.1635 56.3922 23.8742 54.804C24.5922 54.1369 24.668 53.5153 24.2417 52.6264C23.895 51.9005 23.5389 51.1785 23.1505 50.4753C22.8853 50.0034 22.7583 49.522 22.8531 48.9838Z" fill="#395F7E"/>
    <path d="M35.9004 72.9867C35.7602 72.657 35.6181 72.3272 35.4779 71.9975C36.2243 72.0145 36.8722 71.4876 37.6376 71.5995C37.4368 72.0619 37.2379 72.5243 37.0371 72.9867C36.6582 72.9867 36.2793 72.9867 35.9004 72.9867Z" fill="#D7646F"/>
    <path d="M34.4757 72.2761C34.7694 72.4561 35.01 72.6911 35.19 72.9868C34.6216 72.9868 34.0533 72.9868 33.4849 72.9868C33.1003 72.638 32.5775 73.0285 32.1815 72.7385C32.9109 72.403 33.7066 72.4106 34.4757 72.2761Z" fill="#457497"/>
    <path d="M62.9232 61.4771C62.8209 59.9325 63.0539 58.367 62.6201 56.8433C62.1446 55.1717 61.3016 53.7389 59.9148 52.6586C59.9072 52.6245 59.9015 52.5904 59.8996 52.5544C61.6823 49.0198 62.7565 45.2654 63.2945 41.3594C63.5806 39.2784 63.7284 37.1728 63.5977 35.0729C63.3268 30.7878 62.5102 26.6127 60.8204 22.6422C59.3218 19.1209 57.3667 15.8857 54.8622 12.9728C51.2911 8.81845 47.0304 5.60417 42.0442 3.35454C39.2991 2.11696 36.4346 1.25843 33.4622 0.756198C33.1761 0.706922 32.7688 0.782731 32.6381 0.358202C34.1423 0.166785 35.656 0.180051 37.1678 0.21227C42.2317 0.322193 47.0664 1.42331 51.6833 3.53459C56.2925 5.64207 60.2558 8.62325 63.6071 12.3834C68.205 17.5421 71.132 23.5386 72.299 30.3822C72.7328 32.9294 72.9583 35.4899 72.8295 38.0636C72.5945 42.7713 71.5905 47.3103 69.6051 51.6087C68.0194 55.0447 66.0018 58.1946 63.4461 60.9919C63.2832 61.1701 63.0956 61.3179 62.9232 61.4771Z" fill="#C1D8F0"/>
    <path d="M42.5501 40.9955C42.5501 42.4264 42.5501 43.8554 42.5501 45.2862C40.701 47.0772 39.1911 49.1658 37.4918 51.0875C37.2 51.4173 36.6999 51.6656 36.7473 52.236C36.6544 52.2303 36.5597 52.2265 36.4669 52.2209C36.3646 51.7869 36.0539 51.495 35.7716 51.1785C35.1748 50.5114 34.6198 49.8044 33.9908 49.1677C32.748 47.9092 31.7383 46.4385 30.3856 45.2844C30.378 44.007 30.3439 42.7277 30.3742 41.4503C30.3856 40.9898 30.2284 40.7017 29.8722 40.4478C27.3317 38.6511 25.8692 36.174 25.3008 33.1417C25.28 33.0261 25.2364 32.9067 25.2497 32.793C25.3482 31.9515 25.0488 31.5042 24.1509 31.3431C23.2586 31.1839 22.8342 30.5111 22.8304 29.5806C22.8247 28.3259 22.8323 27.0713 22.8361 25.8167C23.2605 25.8186 23.6867 25.8243 24.1111 25.8243C26.8524 25.8243 27.4605 25.2178 27.487 22.4546C27.506 20.4191 28.9553 19.3483 30.9047 19.9282C32.1266 20.2921 33.3675 20.5461 34.6368 20.6977C36.6317 20.9365 38.5906 20.6939 40.5495 20.3698C40.864 20.4248 40.8772 20.6598 40.8715 20.9081C40.7863 25.3959 41.0932 29.8914 40.7105 34.3698C40.5192 36.6175 39.5056 38.562 38.0071 40.2412C37.2474 41.0921 36.3703 41.8142 35.2677 42.5268C36.9935 42.631 38.4712 42.5287 39.9395 42.0663C40.8488 41.782 41.6104 41.1793 42.5501 40.9955Z" fill="#FDDCCE"/>
    <path d="M34.4757 72.2761C33.7065 72.4087 32.9108 72.403 32.1815 72.7385C23.6317 71.6544 16.3436 68.0289 10.3154 61.8675C10.2017 61.7519 10.1146 61.6079 10.0142 61.479C10.107 60.0443 9.89102 58.5926 10.232 57.175C10.8439 54.6429 12.2515 52.6643 14.6613 51.6371C17.3022 50.5114 20.0871 49.7703 22.8493 48.9838C22.7545 49.5202 22.8834 50.0035 23.1448 50.4792C23.5332 51.1842 23.8893 51.9063 24.236 52.6302C24.6623 53.5191 24.5865 54.1407 23.8685 54.8078C22.1597 56.396 22.3112 56.8736 23.2736 58.8219C24.4122 61.1265 25.9979 63.1259 27.6404 65.0837C29.6808 67.5153 31.9731 69.7042 34.2105 71.9444C34.3128 72.0429 34.3885 72.1661 34.4757 72.2761Z" fill="#4C81AB"/>
    <path d="M40.5513 20.3717C38.5924 20.6958 36.6336 20.9384 34.6387 20.6996C33.3694 20.548 32.1285 20.294 30.9065 19.9301C28.9552 19.3483 27.5078 20.4191 27.4889 22.4564C27.4624 25.2197 26.8542 25.8261 24.1129 25.8261C23.6886 25.8261 23.2623 25.8205 22.838 25.8186C22.8361 23.2145 22.7925 20.6105 22.8417 18.0084C22.9194 13.964 26.3371 10.7061 30.6148 10.6322C34.4473 10.5659 38.2799 10.5981 42.1124 10.5905C42.37 10.5905 42.6372 10.5602 42.8645 10.7345C42.4401 10.7326 42.0139 10.7611 41.5933 10.7232C41.0458 10.6739 40.8582 10.8596 40.8639 11.432C40.8923 14.1175 40.8753 16.8049 40.8791 19.4904C40.8791 19.7198 40.8279 19.9699 41.0534 20.1424C40.8829 20.2163 40.7162 20.294 40.5513 20.3717Z" fill="#395F7E"/>
    <path d="M40.5514 20.3717C40.7162 20.294 40.8829 20.2163 41.0478 20.1405C41.4797 20.0343 41.9116 19.932 42.3417 19.824C43.8971 19.4374 45.2952 20.4134 45.4467 22.0149C45.5017 22.6005 45.4676 23.1937 45.532 23.7774C45.6646 24.9714 46.5683 25.7788 47.7637 25.7977C48.5423 25.811 49.3191 25.8015 50.0977 25.8015C50.1015 27.0523 50.111 28.3032 50.1091 29.554C50.1072 30.5225 49.6904 31.1744 48.7602 31.3602C47.9986 31.5118 47.7637 31.9496 47.7031 32.6129C47.5515 34.2617 46.9945 35.7684 46.1401 37.1785C45.3482 38.4862 44.3574 39.5987 43.0976 40.4705C42.8911 40.6126 42.6278 40.7112 42.552 40.9954C41.6123 41.1793 40.8507 41.782 39.9433 42.0681C38.4751 42.5306 36.9974 42.6329 35.2715 42.5287C36.3741 41.8161 37.2512 41.094 38.0109 40.243C39.5113 38.562 40.523 36.6194 40.7143 34.3717C41.097 29.8914 40.7901 25.3959 40.8754 20.9099C40.8791 20.6598 40.8659 20.4267 40.5514 20.3717Z" fill="#FBCBBF"/>
    <path d="M59.8996 52.5563C59.9015 52.5904 59.9072 52.6264 59.9148 52.6605C59.229 53.8412 58.5811 55.0466 57.8517 56.1989C55.9591 59.1858 53.6194 61.7841 50.9728 64.1323C48.3338 66.4729 45.3689 68.2809 42.1862 69.7535C41.6425 70.0056 41.1234 70.449 40.4414 70.2823C41.6804 68.9139 43.0501 67.6725 44.2569 66.272C46.3579 63.8328 48.4399 61.3842 49.8475 58.4504C50.6583 56.7618 50.5901 56.3505 49.264 55.0201C48.294 54.0459 48.2164 53.5949 48.8245 52.3781C49.1409 51.7432 49.444 51.0989 49.7907 50.4791C50.0559 50.0034 50.1809 49.5201 50.0881 48.9819C51.1149 49.1411 52.064 49.5637 53.0511 49.8594C54.5136 50.2991 55.9648 50.7729 57.4178 51.2429C58.3177 51.5348 59.1096 52.0465 59.8996 52.5563Z" fill="#4C81AB"/>
    <path d="M50.0977 25.8015C49.319 25.8015 48.5423 25.8091 47.7637 25.7977C46.5701 25.7788 45.6646 24.9714 45.532 23.7774C45.4676 23.1937 45.5017 22.5986 45.4467 22.0149C45.2952 20.4134 43.8989 19.4374 42.3417 19.824C41.9116 19.932 41.4797 20.0344 41.0477 20.1405C40.8223 19.968 40.8734 19.7179 40.8734 19.4885C40.8715 16.8011 40.8867 14.1156 40.8583 11.4301C40.8526 10.8577 41.0383 10.672 41.5877 10.7213C42.0082 10.7592 42.4345 10.7307 42.8589 10.7326C44.3612 11.015 45.3671 12.1939 45.5377 13.8692C45.6305 14.7789 45.9677 15.0954 46.8941 15.1371C48.7204 15.2205 50.0958 16.604 50.1071 18.4234C50.1242 20.8815 50.1034 23.3415 50.0977 25.8015Z" fill="#2D4F67"/>
    <path d="M30.3874 45.2862C31.7401 46.4404 32.7517 47.9111 33.9926 49.1695C34.6197 49.8063 35.1767 50.5132 35.7734 51.1803C36.0557 51.4968 36.3664 51.7887 36.4687 52.2227C35.8037 52.7875 35.1217 53.3333 34.4814 53.9246C33.968 54.3984 33.3087 54.7168 32.9469 55.3517C31.8443 55.8975 30.9292 55.6891 30.1847 54.696C29.9062 54.3245 29.6599 53.9189 29.2564 53.6574C28.9173 51.0913 28.9078 48.5517 29.91 46.1031C30.0066 45.8662 30.1374 45.6406 30.2529 45.4113C30.2965 45.3696 30.342 45.3279 30.3874 45.2862Z" fill="#F3F9FD"/>
    <path d="M36.7473 52.2379C36.698 51.6674 37.2 51.4192 37.4918 51.0894C39.1911 49.1657 40.701 47.0772 42.5501 45.2881C42.5936 45.3298 42.6391 45.3715 42.6827 45.4113C43.3931 46.6356 43.6962 47.9888 43.808 49.3723C43.9198 50.752 43.9482 52.1431 43.6886 53.5172C43.3438 53.9322 42.9839 54.334 42.658 54.7642C42.2375 55.3195 41.7146 55.5716 41.0061 55.5166C40.6347 55.4882 40.3544 55.2399 39.9963 55.2115C39.9755 54.9348 39.7292 54.8381 39.5606 54.6884C38.6285 53.8659 37.6869 53.0528 36.7473 52.2379Z" fill="#F3F9FD"/>
    <path d="M37.6376 71.5995C36.8722 71.4876 36.2262 72.0126 35.4779 71.9975C34.4132 70.0151 33.4944 67.9663 32.7214 65.8531C33.0492 64.5303 33.394 63.2131 33.699 61.8846C34.0343 60.4233 34.5458 59.0019 34.7391 57.5066C35.8909 57.5066 37.0427 57.5066 38.1965 57.5047C38.1472 57.7473 38.24 57.9671 38.2969 58.1946C38.9391 60.7436 39.5757 63.2946 40.2141 65.8456C39.5264 67.7692 38.6852 69.6227 37.738 71.4308C37.6982 71.4838 37.6584 71.535 37.6187 71.5881C37.6187 71.5881 37.6376 71.5995 37.6376 71.5995Z" fill="#E28087"/>
    <path d="M40.2142 65.8456C39.5757 63.2946 38.9373 60.7436 38.297 58.1946C38.2401 57.9672 38.1492 57.7473 38.1966 57.5047C38.7971 56.7391 39.3977 55.9753 39.9982 55.2096C40.3544 55.238 40.6367 55.4863 41.008 55.5147C41.7165 55.5697 42.2394 55.3176 42.66 54.7623C42.9839 54.3321 43.3458 53.9303 43.6906 53.5153C43.1696 57.8061 41.8643 61.8751 40.2142 65.8456Z" fill="#E4F2FA"/>
    <path d="M37.6187 71.5881C37.6584 71.535 37.6982 71.4839 37.738 71.4308C37.6982 71.4839 37.6584 71.535 37.6187 71.5881Z" fill="#D7646F"/>
    <path d="M34.7391 57.5066C34.544 59.0019 34.0343 60.4233 33.699 61.8845C33.394 63.2112 33.0492 64.5303 32.7215 65.8531C31.0865 61.9243 29.7964 57.8989 29.2565 53.6593C29.66 53.9208 29.9063 54.3264 30.1848 54.696C30.9293 55.6891 31.8443 55.8976 32.9469 55.3517C33.5437 56.07 34.1423 56.7883 34.7391 57.5066Z" fill="#E4F2FA"/>
    <path d="M34.7391 57.5066C34.1405 56.7883 33.5437 56.07 32.9451 55.3518C33.3069 54.715 33.9662 54.3985 34.4796 53.9247C35.1199 53.3333 35.8019 52.7875 36.4669 52.2227C36.5597 52.2284 36.6545 52.2322 36.7473 52.2379C37.687 53.0529 38.6285 53.8659 39.5606 54.6884C39.7292 54.8381 39.9755 54.9348 39.9963 55.2115C39.3958 55.9772 38.7952 56.7409 38.1947 57.5066C37.0447 57.5047 35.8929 57.5047 34.7391 57.5066Z" fill="#DE6570"/>
</svg>
