<svg width="41" height="40" viewBox="0 0 41 40" fill="none" xmlns="http://www.w3.org/2000/svg">
<path d="M21.3638 29.9872C21.7206 30.2211 22.0665 30.3798 22.4132 30.5339C23.3063 30.9301 24.2316 31.2072 25.2166 31.2606C25.7234 31.2882 26.2079 31.1646 26.6782 31.0032C27.7793 30.6251 28.8509 30.7578 29.9137 31.1211C30.3906 31.2841 30.8402 31.5054 31.251 31.7991C31.4363 31.9315 31.5117 32.2429 31.42 32.4487C31.2893 32.7414 31.0284 32.796 30.7373 32.596C30.3041 32.2979 29.833 32.0814 29.3256 31.9374C28.5693 31.7231 27.8159 31.7238 27.0648 31.9693C25.8872 32.3545 24.7197 32.2626 23.5545 31.9365C22.3777 31.6071 21.2925 31.0817 20.2715 30.4189C20.1645 30.3496 20.0679 30.3327 19.9367 30.3702C19.0257 30.6292 18.1065 30.8601 17.2 31.1334C16.5563 31.3276 16.1537 31.105 15.7427 30.6168C15.5033 30.3325 15.392 29.9833 15.3231 29.626C15.2854 29.4316 15.195 29.3783 15.0107 29.346C14.2413 29.2103 13.6247 28.8475 13.3283 28.0826C13.1667 27.6655 13.1318 27.2369 13.4212 26.8513C13.625 26.58 13.9211 26.4268 14.23 26.2993C14.2943 26.2726 14.4306 26.2892 14.3955 26.1733C14.3594 26.0544 14.41 25.8929 14.2127 25.8342C13.6118 25.6553 13.0457 25.4009 12.5648 24.9866C12.3917 24.8374 12.2331 24.6751 12.1171 24.4753C11.8113 23.9491 11.9429 23.2958 12.4216 22.9133C12.679 22.7075 12.9617 22.5592 13.2776 22.4755C13.3738 22.4501 13.4195 22.4274 13.3853 22.3015C13.2463 21.7872 13.2502 21.7961 12.7389 21.6529C12.2262 21.5095 11.7422 21.3025 11.3411 20.9353C10.7421 20.3875 10.6616 19.6016 11.1432 18.9382C11.3973 18.5884 11.7223 18.3197 12.0922 18.101C12.1521 18.0654 12.2749 18.0638 12.2304 17.9428C12.1856 17.821 12.2159 17.6604 12.0208 17.6173C11.5273 17.5085 11.0616 17.3251 10.6355 17.0498C9.51804 16.3283 9.69603 15.164 10.4894 14.4458C10.6595 14.2918 10.8393 14.1476 11.0416 14.0383C11.1512 13.9792 11.1722 13.905 11.1419 13.7918C10.7875 12.4692 10.4303 11.1473 10.0858 9.82217C9.94909 9.29627 9.77004 8.77975 9.69379 8.23998C9.62675 7.76835 9.69201 7.31952 9.99954 6.92077C10.2329 6.61826 10.5745 6.56089 10.9018 6.47059C12.8917 5.92413 14.8843 5.3818 16.8772 4.83803C17.5973 4.64155 18.315 4.43463 19.0385 4.25312C19.595 4.11352 19.9751 4.42216 20.3004 4.81559C20.5276 5.09061 20.6243 5.42772 20.7131 5.76701C20.9756 6.76708 21.2411 7.76611 21.5049 8.76582C22.0278 10.7446 22.5501 12.724 23.0736 14.7028C23.2313 15.2998 23.3925 15.8961 23.5488 16.4935C23.5669 16.5626 23.5955 16.6138 23.6562 16.654C24.5664 17.255 25.4491 17.8994 26.409 18.423C27.0265 18.76 27.6632 19.052 28.3456 19.2447C28.6851 19.3405 29.0246 19.2764 29.3626 19.31C30.2964 19.4019 31.0193 19.8714 31.6395 20.5396C32.2334 21.1793 32.6818 21.934 33.2609 22.5849C34.0752 23.4994 34.9422 24.3508 36.0343 24.9384C36.2987 25.0808 36.3673 25.3159 36.2371 25.5672C36.0996 25.8325 35.8496 25.9111 35.5716 25.7718C34.7535 25.3617 34.0608 24.7854 33.4166 24.1447C32.7013 23.4338 32.0963 22.6339 31.5126 21.8145C31.2051 21.3825 30.8613 20.9753 30.4118 20.6822C29.8661 20.3264 29.2585 20.2221 28.62 20.3382C27.6315 20.5179 26.7175 20.9184 25.8206 21.3565C24.824 21.8435 23.9279 22.4882 23.0537 23.1682C22.6172 23.5079 22.1515 23.8101 21.8111 24.2577C21.6585 24.4584 21.5402 24.6746 21.5074 24.9309C21.4698 25.2245 21.5924 25.4421 21.8648 25.5551C22.1237 25.6626 22.3828 25.6679 22.6503 25.5751C23.3785 25.3227 24.0089 24.9026 24.6198 24.4415C25.012 24.1459 25.4115 23.8574 25.868 23.6619C26.5761 23.3588 27.0882 23.506 27.5225 24.1413C27.7159 24.4247 27.8489 24.7399 27.9961 25.0477C28.3498 25.7894 28.8368 26.3991 29.6254 26.7136C30.1752 26.9333 30.8103 26.7927 31.2171 26.3584C31.2726 26.2993 31.3258 26.2381 31.3801 26.1779C31.5607 25.9784 31.7755 25.9422 31.9698 26.0784C32.1987 26.2394 32.2759 26.4801 32.1456 26.7096C31.9423 27.0684 31.6138 27.303 31.266 27.4952C30.1286 28.125 29.0561 27.8461 28.1284 26.9251C27.7 26.4997 27.4333 25.9792 27.1788 25.4456C27.1068 25.2939 27.0231 25.1498 26.9106 25.0234C26.6284 24.7072 26.2411 24.648 25.8745 24.8576C25.7654 24.9199 25.7967 24.9953 25.8194 25.0809C25.9824 25.6974 26.1468 26.3135 26.3045 26.9318C26.3904 27.2684 26.4007 27.6091 26.315 27.9499C26.1935 28.4326 25.9209 28.7598 25.4177 28.8862C24.7461 29.0549 24.08 29.2465 23.4116 29.4285C22.7438 29.6104 22.0767 29.7929 21.3638 29.9872ZM12.3682 7.20383C12.1452 7.37897 12.1312 7.61244 12.1893 7.83708C12.6308 9.53939 13.0814 11.2389 13.5314 12.939C14.0378 14.8535 14.5479 16.767 15.0547 18.6817C15.3223 19.6935 15.5845 20.7065 15.8518 21.7186C16.167 22.913 16.4859 24.1063 16.802 25.3004C17.1475 26.6046 17.4895 27.9102 17.8386 29.2133C17.8926 29.4142 17.9795 29.6042 18.1412 29.7492C18.2179 29.8179 18.2875 29.8372 18.3942 29.8072C18.9507 29.6501 19.5107 29.5055 20.0689 29.3543C21.75 28.8991 23.4306 28.4401 25.1138 27.991C25.3128 27.9381 25.4002 27.8205 25.414 27.6391C25.4254 27.493 25.4289 27.3443 25.39 27.1984C25.2426 26.6471 25.0943 26.0961 24.9554 25.5426C24.9234 25.4154 24.8857 25.4322 24.7966 25.489C24.4852 25.6888 24.1732 25.8892 23.853 26.0747C23.2387 26.4303 22.5959 26.7135 21.8669 26.6332C20.5967 26.4933 20.1364 25.551 20.5249 24.5363C20.7257 24.0125 21.085 23.6024 21.4725 23.2149C22.1435 22.5443 22.9006 21.982 23.6967 21.4714C23.809 21.3995 23.8479 21.3342 23.8093 21.1952C23.64 20.5888 23.4855 19.9784 23.3246 19.3698C22.8485 17.5722 22.3706 15.7753 21.8959 13.9774C21.4866 12.4266 21.0819 10.8743 20.6727 9.32346C20.3713 8.18175 20.0671 7.04078 19.7626 5.90011C19.7124 5.71136 19.645 5.52848 19.531 5.36809C19.4251 5.2181 19.2953 5.14965 19.1004 5.21009C18.7534 5.31758 18.4015 5.40932 18.0503 5.50217C17.9457 5.52981 17.9075 5.57013 17.9422 5.68397C18.0159 5.92801 18.0797 6.1752 18.1404 6.42286C18.2199 6.74839 18.3398 7.06438 18.3595 7.40374C18.388 7.90397 18.154 8.29295 17.727 8.41259C16.8849 8.64833 16.0396 8.87308 15.1957 9.10291C14.9424 9.17195 14.717 9.11029 14.5135 8.95834C14.2913 8.79233 14.1457 8.57143 14.0739 8.30296C13.9459 7.82291 13.8144 7.34363 13.6963 6.861C13.6634 6.72759 13.6083 6.70051 13.4882 6.74194C13.222 6.83377 12.9558 6.92447 12.6873 7.00814C12.5579 7.04841 12.4213 7.0685 12.3682 7.20383ZM16.6195 30.1818C16.7007 30.3227 16.8414 30.2305 16.9761 30.2043C17.0955 30.1812 17.1335 30.1423 17.0696 30.0176C17.003 29.8876 16.9585 29.7443 16.9198 29.6024C16.7766 29.0777 16.6399 28.5513 16.5004 28.0255C16.1987 26.8901 15.8954 25.7548 15.5957 24.619C15.0472 22.5422 14.5016 20.4645 13.9537 18.3876C13.5632 16.9081 13.17 15.4293 12.7784 13.9498C12.3904 12.4833 11.9947 11.0186 11.6194 9.54875C11.4442 8.86202 11.1758 8.19252 11.1979 7.46324C11.1991 7.42138 11.197 7.39004 11.1355 7.3888C10.8557 7.38243 10.6525 7.55296 10.6233 7.83655C10.6088 7.97762 10.6218 8.11936 10.6575 8.2569C10.7721 8.69882 10.8859 9.14108 11.0028 9.5823C11.4734 11.3596 11.9451 13.1368 12.4156 14.9141C12.8142 16.4195 13.2125 17.9246 13.6094 19.4301C14.1247 21.3836 14.6378 23.3378 15.1525 25.2913C15.5221 26.6934 15.8903 28.0959 16.265 29.4965C16.329 29.7363 16.4033 29.9765 16.6195 30.1818ZM23.9749 18.011C23.9717 18.0599 23.9673 18.0739 23.9704 18.086C24.2024 18.9662 24.4361 19.8458 24.665 20.7271C24.6935 20.8376 24.7334 20.8304 24.817 20.7828C25.0449 20.6535 25.2773 20.5324 25.5074 20.4072C25.9551 20.163 26.4189 19.9522 26.94 19.746C25.8697 19.2667 24.9351 18.64 23.9749 18.011ZM14.6819 6.81596C14.9925 6.62849 15.3489 6.57998 15.6918 6.4982C15.9272 6.44252 16.1513 6.60642 16.2195 6.83246C16.2824 7.04022 16.1855 7.29404 15.9797 7.3763C15.6924 7.49113 15.3911 7.61022 15.0874 7.61013C14.8292 7.60993 14.8959 7.71387 14.9343 7.84896C14.9451 7.88752 14.9664 7.92461 14.971 7.96354C14.9917 8.13831 15.0831 8.15437 15.2365 8.11068C15.9093 7.91958 16.584 7.73351 17.2603 7.5565C17.4026 7.51919 17.4267 7.45424 17.3932 7.32946C17.2696 6.86918 17.1463 6.40859 17.0297 5.94647C16.9999 5.82832 16.9576 5.80393 16.8348 5.83865C16.1941 6.01985 15.55 6.18923 14.9072 6.36311C14.473 6.48061 14.5679 6.40347 14.6665 6.79941C14.6685 6.80502 14.6755 6.80918 14.6819 6.81596ZM12.9646 20.7224C12.8136 20.1565 12.6708 19.6278 12.533 19.0976C12.5045 18.9877 12.4608 18.998 12.3789 19.0455C12.1711 19.1662 11.9979 19.325 11.8775 19.5301C11.7162 19.8046 11.7381 20.036 11.9574 20.2185C12.2413 20.4555 12.5677 20.6197 12.9646 20.7224ZM11.8697 16.5803C11.7262 16.0385 11.5906 15.5348 11.4599 15.0301C11.4297 14.9137 11.3857 14.9363 11.3087 14.9903C11.1408 15.1087 10.9988 15.253 10.8922 15.4259C10.7329 15.6836 10.7699 15.9095 10.9911 16.1117C11.2327 16.3326 11.5195 16.4699 11.8697 16.5803ZM14.0313 24.7598C13.93 24.3837 13.8434 24.054 13.752 23.7261C13.6432 23.3362 13.5791 23.3119 13.2092 23.5094C13.1795 23.5252 13.151 23.5432 13.1228 23.5621C12.8584 23.7382 12.8397 23.931 13.0576 24.1563C13.3185 24.4261 13.6477 24.5835 14.0313 24.7598ZM14.9845 28.3714C14.879 27.9693 14.7836 27.6072 14.6882 27.2452C14.68 27.2145 14.6775 27.1828 14.6315 27.1764C14.4007 27.1431 14.1283 27.4416 14.1914 27.6637C14.2993 28.0473 14.5977 28.2217 14.9845 28.3714Z" fill="#008ABD"/>
<path d="M16.7364 6.92978C16.6046 6.81437 16.5622 6.52349 16.6629 6.41211C16.7474 6.31888 16.8276 6.34824 16.9063 6.42209C17.0331 6.54066 17.0731 6.80647 16.9792 6.92232C16.9009 7.01891 16.819 7.00112 16.7364 6.92978Z" fill="#008ABD"/>
</svg>
