<svg width="17" height="14" viewBox="0 0 17 14" fill="none" xmlns="http://www.w3.org/2000/svg">
<path d="M13.6923 1H3.30769C2.03319 1 1 2.03319 1 3.30769V10.2308C1 11.5053 2.03319 12.5385 3.30769 12.5385H13.6923C14.9668 12.5385 16 11.5053 16 10.2308V3.30769C16 2.03319 14.9668 1 13.6923 1Z" stroke="white" stroke-width="1.2" stroke-linecap="round" stroke-linejoin="round"/>
<path d="M6.55 9.44614V4.59999C6.54759 4.51817 6.56754 4.43725 6.60771 4.36593C6.64788 4.29461 6.70674 4.23559 6.77795 4.19524C6.84916 4.15488 6.93003 4.13472 7.01186 4.13691C7.09368 4.1391 7.17336 4.16357 7.24231 4.20768L11.3962 6.63076C11.4656 6.67148 11.5231 6.72964 11.5631 6.79947C11.6031 6.8693 11.6241 6.94837 11.6241 7.02883C11.6241 7.1093 11.6031 7.18837 11.5631 7.2582C11.5231 7.32803 11.4656 7.38619 11.3962 7.42691L7.24231 9.84999C7.17184 9.89068 7.09187 9.91201 7.0105 9.91183C6.92913 9.91165 6.84925 9.88996 6.77896 9.84896C6.70868 9.80796 6.65048 9.74911 6.61027 9.67837C6.57006 9.60763 6.54927 9.52751 6.55 9.44614V9.44614Z" stroke="white" stroke-width="1.2" stroke-linecap="round" stroke-linejoin="round"/>
</svg>
