<svg width="19" height="19" viewBox="0 0 19 19" fill="none" xmlns="http://www.w3.org/2000/svg">
<mask id="path-1-outside-1_31_2382" maskUnits="userSpaceOnUse" x="0" y="-0.501465" width="19" height="20" fill="black">
<rect fill="white" y="-0.501465" width="19" height="20"/>
<path d="M8.29254 0.551268C7.96861 0.668034 7.76145 0.890263 7.68235 1.20666C7.65598 1.30459 7.34335 3.05983 6.98176 5.10887C6.3904 8.47622 6.31884 8.83405 6.25104 8.86042C6.2096 8.87549 6.04764 8.92822 5.89321 8.97342C5.32068 9.14291 4.59749 9.59491 3.96094 10.1825C3.49388 10.6157 3.23775 10.9509 2.92888 11.5385C2.33752 12.6647 1.87423 13.3992 1.34691 14.0508C0.974011 14.5103 0.966477 14.5254 1.03051 15.1657C1.15104 16.4049 1.5616 17.4031 2.22076 18.0736C2.53339 18.39 2.73679 18.518 2.86862 18.4841C2.92888 18.4691 3.16241 18.2732 3.42608 18.0171L3.87807 17.5726L4.2472 17.5123C5.70111 17.26 7.17009 16.3484 8.16071 15.0716C8.34904 14.8267 8.6805 14.3484 8.69934 14.2956C8.7031 14.2806 12.0818 14.887 12.1006 14.9058C12.1307 14.936 11.9989 15.2599 11.8181 15.6027C11.5281 16.145 11.0271 16.8645 10.3679 17.6818C10.0252 18.1075 9.98752 18.2167 10.1231 18.3749L10.2173 18.4841L10.7597 18.4954C12.1948 18.5293 14.9594 18.2807 15.7052 18.0472C16.1083 17.9229 16.3192 17.8024 16.3493 17.6856C16.3644 17.6291 16.3456 17.4747 16.3079 17.3278C16.2589 17.1432 16.2476 16.9775 16.2589 16.7176L16.274 16.3635L16.8428 15.2373C18.0631 12.8304 18.5151 11.7042 18.4586 11.2259C18.4134 10.8078 18.1837 10.514 17.4605 9.9452C17.0311 9.60244 16.21 9.03368 15.7693 8.77002C15.5772 8.65326 15.5395 8.61559 15.5546 8.54779C15.5659 8.50259 15.8032 7.16168 16.0819 5.56463C16.4322 3.56833 16.5829 2.62291 16.5678 2.53251C16.5113 2.23118 16.2476 1.90725 15.984 1.82062C15.8484 1.77918 15.3813 1.69255 11.1627 0.954296C9.74269 0.701933 8.5449 0.498535 8.50724 0.498535C8.46957 0.502302 8.37164 0.524902 8.29254 0.551268ZM12.0592 1.72268C14.0027 2.06168 15.6563 2.35924 15.7316 2.38184C15.8258 2.40821 15.8936 2.45717 15.9275 2.52874C15.9802 2.62667 15.9501 2.82254 15.5433 5.1277L15.1026 7.62497L15.0574 7.26337C15.0046 6.83398 14.8916 6.39705 14.7673 6.15599C14.6581 5.94129 14.3493 5.64373 14.1308 5.5458C13.8031 5.39513 13.3624 5.478 13.1515 5.73036C13.0121 5.89986 12.9895 6.06559 13.0648 6.48369C13.0987 6.68332 13.1251 6.90931 13.1251 6.98841C13.1251 7.11648 13.1176 7.12778 13.0422 7.10894C12.771 7.04491 8.22851 6.26146 8.13058 6.26146C7.89328 6.26146 7.87068 6.32925 7.65222 7.57224C7.54298 8.19749 7.44505 8.71729 7.43375 8.72859C7.42245 8.73989 7.30569 8.75872 7.17762 8.77379L6.94033 8.79639L6.96293 8.68715C6.97423 8.62689 7.27179 6.94698 7.62208 4.95821C7.97238 2.96567 8.27747 1.29706 8.30384 1.25562C8.32644 1.21042 8.38294 1.15769 8.42814 1.13886C8.47334 1.12003 8.51477 1.10496 8.51854 1.10496C8.51854 1.10119 10.1118 1.37992 12.0592 1.72268ZM13.9425 6.13339C14.1157 6.21626 14.2287 6.37822 14.3229 6.67578C14.5188 7.27844 14.5263 7.94513 14.353 8.52142C14.1911 9.04875 14.1647 9.24838 14.2099 9.57608C14.2664 9.98287 14.3869 10.2767 14.5753 10.4763C14.7636 10.6722 14.9142 10.6985 15.0649 10.5554C15.1779 10.4462 15.1854 10.3106 15.08 10.1599C14.854 9.82467 14.805 9.68154 14.8012 9.34255C14.8012 9.16175 14.8201 8.99602 14.8389 8.97718C14.8653 8.95082 15.0235 9.02615 15.3286 9.21071C16.6205 9.99417 17.6149 10.7626 17.8145 11.1355C17.8786 11.2522 17.8823 11.2937 17.8447 11.4707C17.743 11.9528 17.2495 13.0828 16.3832 14.8117C15.6676 16.2354 15.6337 16.3371 15.6563 16.9963L15.6676 17.4257L15.4981 17.4747C14.8427 17.6668 13.2758 17.825 11.5318 17.8739C11.1024 17.889 11.0158 17.8815 11.0309 17.84C11.0422 17.8099 11.2004 17.5877 11.3849 17.3428C12.1533 16.3258 12.5676 15.5951 12.7183 14.9849C12.7936 14.6874 12.7974 14.6233 12.756 14.3597C12.7334 14.1977 12.6279 13.8022 12.5262 13.4858C12.2475 12.6383 12.2098 12.4312 12.2098 11.8172C12.2098 11.256 12.255 10.9697 12.432 10.4499C12.5601 10.0657 12.8916 9.37268 13.1402 8.97342C13.5093 8.38583 13.6826 7.8472 13.7165 7.18051C13.7315 6.86035 13.724 6.69462 13.675 6.47239C13.6374 6.31042 13.6185 6.15599 13.6298 6.12586C13.6562 6.05429 13.7805 6.05806 13.9425 6.13339ZM8.9291 6.99594L9.27186 7.05998L9.20029 7.45924C9.16263 7.68147 9.12496 7.8811 9.11743 7.9037C9.10613 7.93007 8.96676 7.91877 8.67297 7.8698C8.43944 7.82837 8.24358 7.7907 8.23604 7.78693C8.23228 7.78317 8.25864 7.5873 8.30384 7.35377C8.34527 7.11648 8.37917 6.92061 8.37917 6.90931C8.37917 6.90178 8.42437 6.90555 8.48464 6.91685C8.54114 6.92815 8.74077 6.96581 8.9291 6.99594ZM10.1344 7.20311C10.7634 7.31611 10.7597 7.31234 10.7371 7.42157C10.7258 7.47807 10.6919 7.6777 10.658 7.86603L10.5977 8.20503L10.157 8.1297C9.91595 8.0845 9.72009 8.03176 9.72385 8.01293C9.75022 7.7681 9.86322 7.16544 9.88582 7.16544C9.89712 7.16544 10.0101 7.18428 10.1344 7.20311ZM11.8181 7.50067C12.0215 7.53834 12.1948 7.57977 12.2098 7.59107C12.2211 7.60614 12.1985 7.802 12.1609 8.03176C12.1081 8.34816 12.078 8.44609 12.0328 8.44609C11.8595 8.44986 11.2041 8.31049 11.2041 8.27283C11.2041 8.22763 11.3021 7.68147 11.336 7.51197C11.3586 7.41404 11.3473 7.41404 11.8181 7.50067ZM13.0121 7.76057C13.0121 7.8585 12.884 8.21633 12.7899 8.39336L12.707 8.54026L12.7296 8.35193C12.7409 8.24646 12.7673 8.05813 12.7899 7.9263C12.8275 7.71537 12.8388 7.69277 12.9217 7.69277C12.9857 7.69277 13.0121 7.71537 13.0121 7.76057ZM8.97806 8.54402C9.0082 8.55156 9.02326 8.56662 9.01573 8.57416C8.98936 8.60052 8.11174 8.68339 8.09291 8.66079C8.08161 8.64949 8.08538 8.58546 8.09668 8.51389L8.12304 8.38206L8.5223 8.45362C8.74453 8.49129 8.94793 8.53272 8.97806 8.54402ZM10.4809 8.80392C10.496 8.81522 10.3453 9.65517 10.3265 9.67777C10.3152 9.68907 9.69372 9.58738 9.59579 9.55724C9.56189 9.54594 9.56189 9.51581 9.60332 9.43671C9.67112 9.30865 9.67489 9.04122 9.61462 8.87549C9.53552 8.64949 9.56566 8.63819 10.044 8.72105C10.2775 8.76249 10.4734 8.80015 10.4809 8.80392ZM11.5808 8.99225C11.7767 9.02615 11.9462 9.06005 11.9537 9.06758C11.9763 9.09018 11.8369 9.91507 11.8106 9.93014C11.7842 9.9452 10.9706 9.80961 10.948 9.78701C10.9367 9.77194 10.9819 9.47438 11.0572 9.09395C11.0874 8.93575 11.11 8.89808 11.1589 8.91315C11.1928 8.92445 11.3849 8.95835 11.5808 8.99225ZM9.0195 9.23331C9.0195 9.32371 8.7483 9.65141 8.5449 9.80584C8.23604 10.0356 7.85561 10.19 7.29439 10.3068C6.75576 10.416 6.47327 10.5516 6.19454 10.8266C5.97984 11.0375 5.87061 11.2296 5.83294 11.4518C5.81411 11.5799 5.82918 11.6402 5.94217 11.8398C6.1418 12.2014 6.2096 12.4538 6.2096 12.7965C6.2096 13.1355 6.13804 13.3879 5.96477 13.6629C5.79528 13.9303 5.78774 14.032 5.92334 14.1713C5.98737 14.2316 6.07024 14.2843 6.11167 14.2843C6.2096 14.2843 6.39417 14.1299 6.4921 13.9679L6.5712 13.8436L7.29062 14.0056C7.68612 14.0922 8.01758 14.1751 8.02888 14.1864C8.06654 14.2203 7.62585 14.7966 7.27932 15.1695C6.3339 16.1752 5.20768 16.7703 3.8969 16.9586L3.57674 17.0076L3.17748 17.3956L2.78199 17.7873L2.64639 17.6442C2.31869 17.2976 2.0249 16.8004 1.86293 16.3183C1.7763 16.0471 1.652 15.3428 1.62563 14.9548L1.6068 14.6987L1.93826 14.2693C2.54469 13.4745 3.01552 12.7212 3.50141 11.7645C3.73494 11.3087 3.79144 11.2259 4.13797 10.868C4.76699 10.2126 5.56175 9.67777 6.13804 9.51958C6.26234 9.48568 6.92526 9.40281 7.60702 9.33125C9.0534 9.18811 9.0195 9.18811 9.0195 9.23331ZM10.5261 10.3332C11.1363 10.4424 11.6524 10.5441 11.6712 10.5592C11.7164 10.6006 11.577 11.4217 11.5281 11.4217C11.4188 11.4255 9.26056 11.03 9.23043 11.0036C9.18523 10.9622 9.32083 10.1411 9.37356 10.1411C9.39616 10.1411 9.91218 10.2277 10.5261 10.3332ZM8.6353 10.6759C8.61647 10.7852 8.59387 10.8831 8.58634 10.8906C8.5788 10.8982 8.42437 10.8793 8.24734 10.853C8.07031 10.8266 7.93848 10.7965 7.95355 10.7814C7.96861 10.7701 8.10798 10.7098 8.25864 10.6496C8.40931 10.5893 8.54114 10.529 8.55244 10.5102C8.56374 10.4951 8.59387 10.4801 8.62024 10.4801C8.66167 10.4801 8.66167 10.5215 8.6353 10.6759ZM7.21152 11.256C7.26426 11.2824 8.23981 11.4631 9.37733 11.6628C10.5186 11.8624 11.4866 12.0319 11.5356 12.0432C11.6034 12.0583 11.6185 12.0884 11.6185 12.2089C11.6185 12.4575 11.7277 12.951 11.9236 13.58C12.0253 13.9114 12.1081 14.2052 12.1081 14.2354C12.1081 14.2693 12.078 14.2806 12.0253 14.2655C11.9763 14.2542 11.5921 14.1864 11.1665 14.1148C10.7408 14.0395 10.3679 13.9717 10.3378 13.9604C10.3039 13.9453 10.3529 13.919 10.4583 13.8926C11.238 13.6855 11.4753 12.676 10.8727 12.1298C10.6542 11.934 10.432 11.8586 10.1156 11.8812C9.55436 11.9227 9.17393 12.3332 9.17016 12.8907C9.17016 13.2711 9.33966 13.5649 9.69749 13.8097L9.79165 13.8738L9.69749 13.8549C9.64476 13.8436 9.31706 13.7834 8.963 13.7194C8.27747 13.5951 6.86876 13.3088 6.82733 13.2824C6.81603 13.2749 6.80473 13.0828 6.80473 12.8606C6.80473 12.4123 6.74446 12.1185 6.5712 11.7343C6.48833 11.5573 6.4695 11.4707 6.4921 11.4104C6.5373 11.2974 6.7068 11.1468 6.89136 11.0526L7.04203 10.9773L7.07969 11.094C7.09852 11.1618 7.15879 11.2334 7.21152 11.256ZM10.4207 12.627C10.6316 12.789 10.6504 13.0979 10.4583 13.2787C10.1683 13.5536 9.73515 13.3578 9.73515 12.951C9.73515 12.838 9.76152 12.7815 9.86322 12.6798C9.97245 12.5705 10.0176 12.5517 10.1608 12.5517C10.27 12.5517 10.3604 12.5781 10.4207 12.627Z"/>
</mask>
<path d="M8.29254 0.551268C7.96861 0.668034 7.76145 0.890263 7.68235 1.20666C7.65598 1.30459 7.34335 3.05983 6.98176 5.10887C6.3904 8.47622 6.31884 8.83405 6.25104 8.86042C6.2096 8.87549 6.04764 8.92822 5.89321 8.97342C5.32068 9.14291 4.59749 9.59491 3.96094 10.1825C3.49388 10.6157 3.23775 10.9509 2.92888 11.5385C2.33752 12.6647 1.87423 13.3992 1.34691 14.0508C0.974011 14.5103 0.966477 14.5254 1.03051 15.1657C1.15104 16.4049 1.5616 17.4031 2.22076 18.0736C2.53339 18.39 2.73679 18.518 2.86862 18.4841C2.92888 18.4691 3.16241 18.2732 3.42608 18.0171L3.87807 17.5726L4.2472 17.5123C5.70111 17.26 7.17009 16.3484 8.16071 15.0716C8.34904 14.8267 8.6805 14.3484 8.69934 14.2956C8.7031 14.2806 12.0818 14.887 12.1006 14.9058C12.1307 14.936 11.9989 15.2599 11.8181 15.6027C11.5281 16.145 11.0271 16.8645 10.3679 17.6818C10.0252 18.1075 9.98752 18.2167 10.1231 18.3749L10.2173 18.4841L10.7597 18.4954C12.1948 18.5293 14.9594 18.2807 15.7052 18.0472C16.1083 17.9229 16.3192 17.8024 16.3493 17.6856C16.3644 17.6291 16.3456 17.4747 16.3079 17.3278C16.2589 17.1432 16.2476 16.9775 16.2589 16.7176L16.274 16.3635L16.8428 15.2373C18.0631 12.8304 18.5151 11.7042 18.4586 11.2259C18.4134 10.8078 18.1837 10.514 17.4605 9.9452C17.0311 9.60244 16.21 9.03368 15.7693 8.77002C15.5772 8.65326 15.5395 8.61559 15.5546 8.54779C15.5659 8.50259 15.8032 7.16168 16.0819 5.56463C16.4322 3.56833 16.5829 2.62291 16.5678 2.53251C16.5113 2.23118 16.2476 1.90725 15.984 1.82062C15.8484 1.77918 15.3813 1.69255 11.1627 0.954296C9.74269 0.701933 8.5449 0.498535 8.50724 0.498535C8.46957 0.502302 8.37164 0.524902 8.29254 0.551268ZM12.0592 1.72268C14.0027 2.06168 15.6563 2.35924 15.7316 2.38184C15.8258 2.40821 15.8936 2.45717 15.9275 2.52874C15.9802 2.62667 15.9501 2.82254 15.5433 5.1277L15.1026 7.62497L15.0574 7.26337C15.0046 6.83398 14.8916 6.39705 14.7673 6.15599C14.6581 5.94129 14.3493 5.64373 14.1308 5.5458C13.8031 5.39513 13.3624 5.478 13.1515 5.73036C13.0121 5.89986 12.9895 6.06559 13.0648 6.48369C13.0987 6.68332 13.1251 6.90931 13.1251 6.98841C13.1251 7.11648 13.1176 7.12778 13.0422 7.10894C12.771 7.04491 8.22851 6.26146 8.13058 6.26146C7.89328 6.26146 7.87068 6.32925 7.65222 7.57224C7.54298 8.19749 7.44505 8.71729 7.43375 8.72859C7.42245 8.73989 7.30569 8.75872 7.17762 8.77379L6.94033 8.79639L6.96293 8.68715C6.97423 8.62689 7.27179 6.94698 7.62208 4.95821C7.97238 2.96567 8.27747 1.29706 8.30384 1.25562C8.32644 1.21042 8.38294 1.15769 8.42814 1.13886C8.47334 1.12003 8.51477 1.10496 8.51854 1.10496C8.51854 1.10119 10.1118 1.37992 12.0592 1.72268ZM13.9425 6.13339C14.1157 6.21626 14.2287 6.37822 14.3229 6.67578C14.5188 7.27844 14.5263 7.94513 14.353 8.52142C14.1911 9.04875 14.1647 9.24838 14.2099 9.57608C14.2664 9.98287 14.3869 10.2767 14.5753 10.4763C14.7636 10.6722 14.9142 10.6985 15.0649 10.5554C15.1779 10.4462 15.1854 10.3106 15.08 10.1599C14.854 9.82467 14.805 9.68154 14.8012 9.34255C14.8012 9.16175 14.8201 8.99602 14.8389 8.97718C14.8653 8.95082 15.0235 9.02615 15.3286 9.21071C16.6205 9.99417 17.6149 10.7626 17.8145 11.1355C17.8786 11.2522 17.8823 11.2937 17.8447 11.4707C17.743 11.9528 17.2495 13.0828 16.3832 14.8117C15.6676 16.2354 15.6337 16.3371 15.6563 16.9963L15.6676 17.4257L15.4981 17.4747C14.8427 17.6668 13.2758 17.825 11.5318 17.8739C11.1024 17.889 11.0158 17.8815 11.0309 17.84C11.0422 17.8099 11.2004 17.5877 11.3849 17.3428C12.1533 16.3258 12.5676 15.5951 12.7183 14.9849C12.7936 14.6874 12.7974 14.6233 12.756 14.3597C12.7334 14.1977 12.6279 13.8022 12.5262 13.4858C12.2475 12.6383 12.2098 12.4312 12.2098 11.8172C12.2098 11.256 12.255 10.9697 12.432 10.4499C12.5601 10.0657 12.8916 9.37268 13.1402 8.97342C13.5093 8.38583 13.6826 7.8472 13.7165 7.18051C13.7315 6.86035 13.724 6.69462 13.675 6.47239C13.6374 6.31042 13.6185 6.15599 13.6298 6.12586C13.6562 6.05429 13.7805 6.05806 13.9425 6.13339ZM8.9291 6.99594L9.27186 7.05998L9.20029 7.45924C9.16263 7.68147 9.12496 7.8811 9.11743 7.9037C9.10613 7.93007 8.96676 7.91877 8.67297 7.8698C8.43944 7.82837 8.24358 7.7907 8.23604 7.78693C8.23228 7.78317 8.25864 7.5873 8.30384 7.35377C8.34527 7.11648 8.37917 6.92061 8.37917 6.90931C8.37917 6.90178 8.42437 6.90555 8.48464 6.91685C8.54114 6.92815 8.74077 6.96581 8.9291 6.99594ZM10.1344 7.20311C10.7634 7.31611 10.7597 7.31234 10.7371 7.42157C10.7258 7.47807 10.6919 7.6777 10.658 7.86603L10.5977 8.20503L10.157 8.1297C9.91595 8.0845 9.72009 8.03176 9.72385 8.01293C9.75022 7.7681 9.86322 7.16544 9.88582 7.16544C9.89712 7.16544 10.0101 7.18428 10.1344 7.20311ZM11.8181 7.50067C12.0215 7.53834 12.1948 7.57977 12.2098 7.59107C12.2211 7.60614 12.1985 7.802 12.1609 8.03176C12.1081 8.34816 12.078 8.44609 12.0328 8.44609C11.8595 8.44986 11.2041 8.31049 11.2041 8.27283C11.2041 8.22763 11.3021 7.68147 11.336 7.51197C11.3586 7.41404 11.3473 7.41404 11.8181 7.50067ZM13.0121 7.76057C13.0121 7.8585 12.884 8.21633 12.7899 8.39336L12.707 8.54026L12.7296 8.35193C12.7409 8.24646 12.7673 8.05813 12.7899 7.9263C12.8275 7.71537 12.8388 7.69277 12.9217 7.69277C12.9857 7.69277 13.0121 7.71537 13.0121 7.76057ZM8.97806 8.54402C9.0082 8.55156 9.02326 8.56662 9.01573 8.57416C8.98936 8.60052 8.11174 8.68339 8.09291 8.66079C8.08161 8.64949 8.08538 8.58546 8.09668 8.51389L8.12304 8.38206L8.5223 8.45362C8.74453 8.49129 8.94793 8.53272 8.97806 8.54402ZM10.4809 8.80392C10.496 8.81522 10.3453 9.65517 10.3265 9.67777C10.3152 9.68907 9.69372 9.58738 9.59579 9.55724C9.56189 9.54594 9.56189 9.51581 9.60332 9.43671C9.67112 9.30865 9.67489 9.04122 9.61462 8.87549C9.53552 8.64949 9.56566 8.63819 10.044 8.72105C10.2775 8.76249 10.4734 8.80015 10.4809 8.80392ZM11.5808 8.99225C11.7767 9.02615 11.9462 9.06005 11.9537 9.06758C11.9763 9.09018 11.8369 9.91507 11.8106 9.93014C11.7842 9.9452 10.9706 9.80961 10.948 9.78701C10.9367 9.77194 10.9819 9.47438 11.0572 9.09395C11.0874 8.93575 11.11 8.89808 11.1589 8.91315C11.1928 8.92445 11.3849 8.95835 11.5808 8.99225ZM9.0195 9.23331C9.0195 9.32371 8.7483 9.65141 8.5449 9.80584C8.23604 10.0356 7.85561 10.19 7.29439 10.3068C6.75576 10.416 6.47327 10.5516 6.19454 10.8266C5.97984 11.0375 5.87061 11.2296 5.83294 11.4518C5.81411 11.5799 5.82918 11.6402 5.94217 11.8398C6.1418 12.2014 6.2096 12.4538 6.2096 12.7965C6.2096 13.1355 6.13804 13.3879 5.96477 13.6629C5.79528 13.9303 5.78774 14.032 5.92334 14.1713C5.98737 14.2316 6.07024 14.2843 6.11167 14.2843C6.2096 14.2843 6.39417 14.1299 6.4921 13.9679L6.5712 13.8436L7.29062 14.0056C7.68612 14.0922 8.01758 14.1751 8.02888 14.1864C8.06654 14.2203 7.62585 14.7966 7.27932 15.1695C6.3339 16.1752 5.20768 16.7703 3.8969 16.9586L3.57674 17.0076L3.17748 17.3956L2.78199 17.7873L2.64639 17.6442C2.31869 17.2976 2.0249 16.8004 1.86293 16.3183C1.7763 16.0471 1.652 15.3428 1.62563 14.9548L1.6068 14.6987L1.93826 14.2693C2.54469 13.4745 3.01552 12.7212 3.50141 11.7645C3.73494 11.3087 3.79144 11.2259 4.13797 10.868C4.76699 10.2126 5.56175 9.67777 6.13804 9.51958C6.26234 9.48568 6.92526 9.40281 7.60702 9.33125C9.0534 9.18811 9.0195 9.18811 9.0195 9.23331ZM10.5261 10.3332C11.1363 10.4424 11.6524 10.5441 11.6712 10.5592C11.7164 10.6006 11.577 11.4217 11.5281 11.4217C11.4188 11.4255 9.26056 11.03 9.23043 11.0036C9.18523 10.9622 9.32083 10.1411 9.37356 10.1411C9.39616 10.1411 9.91218 10.2277 10.5261 10.3332ZM8.6353 10.6759C8.61647 10.7852 8.59387 10.8831 8.58634 10.8906C8.5788 10.8982 8.42437 10.8793 8.24734 10.853C8.07031 10.8266 7.93848 10.7965 7.95355 10.7814C7.96861 10.7701 8.10798 10.7098 8.25864 10.6496C8.40931 10.5893 8.54114 10.529 8.55244 10.5102C8.56374 10.4951 8.59387 10.4801 8.62024 10.4801C8.66167 10.4801 8.66167 10.5215 8.6353 10.6759ZM7.21152 11.256C7.26426 11.2824 8.23981 11.4631 9.37733 11.6628C10.5186 11.8624 11.4866 12.0319 11.5356 12.0432C11.6034 12.0583 11.6185 12.0884 11.6185 12.2089C11.6185 12.4575 11.7277 12.951 11.9236 13.58C12.0253 13.9114 12.1081 14.2052 12.1081 14.2354C12.1081 14.2693 12.078 14.2806 12.0253 14.2655C11.9763 14.2542 11.5921 14.1864 11.1665 14.1148C10.7408 14.0395 10.3679 13.9717 10.3378 13.9604C10.3039 13.9453 10.3529 13.919 10.4583 13.8926C11.238 13.6855 11.4753 12.676 10.8727 12.1298C10.6542 11.934 10.432 11.8586 10.1156 11.8812C9.55436 11.9227 9.17393 12.3332 9.17016 12.8907C9.17016 13.2711 9.33966 13.5649 9.69749 13.8097L9.79165 13.8738L9.69749 13.8549C9.64476 13.8436 9.31706 13.7834 8.963 13.7194C8.27747 13.5951 6.86876 13.3088 6.82733 13.2824C6.81603 13.2749 6.80473 13.0828 6.80473 12.8606C6.80473 12.4123 6.74446 12.1185 6.5712 11.7343C6.48833 11.5573 6.4695 11.4707 6.4921 11.4104C6.5373 11.2974 6.7068 11.1468 6.89136 11.0526L7.04203 10.9773L7.07969 11.094C7.09852 11.1618 7.15879 11.2334 7.21152 11.256ZM10.4207 12.627C10.6316 12.789 10.6504 13.0979 10.4583 13.2787C10.1683 13.5536 9.73515 13.3578 9.73515 12.951C9.73515 12.838 9.76152 12.7815 9.86322 12.6798C9.97245 12.5705 10.0176 12.5517 10.1608 12.5517C10.27 12.5517 10.3604 12.5781 10.4207 12.627Z" fill="white"/>
<path d="M8.29254 0.551268C7.96861 0.668034 7.76145 0.890263 7.68235 1.20666C7.65598 1.30459 7.34335 3.05983 6.98176 5.10887C6.3904 8.47622 6.31884 8.83405 6.25104 8.86042C6.2096 8.87549 6.04764 8.92822 5.89321 8.97342C5.32068 9.14291 4.59749 9.59491 3.96094 10.1825C3.49388 10.6157 3.23775 10.9509 2.92888 11.5385C2.33752 12.6647 1.87423 13.3992 1.34691 14.0508C0.974011 14.5103 0.966477 14.5254 1.03051 15.1657C1.15104 16.4049 1.5616 17.4031 2.22076 18.0736C2.53339 18.39 2.73679 18.518 2.86862 18.4841C2.92888 18.4691 3.16241 18.2732 3.42608 18.0171L3.87807 17.5726L4.2472 17.5123C5.70111 17.26 7.17009 16.3484 8.16071 15.0716C8.34904 14.8267 8.6805 14.3484 8.69934 14.2956C8.7031 14.2806 12.0818 14.887 12.1006 14.9058C12.1307 14.936 11.9989 15.2599 11.8181 15.6027C11.5281 16.145 11.0271 16.8645 10.3679 17.6818C10.0252 18.1075 9.98752 18.2167 10.1231 18.3749L10.2173 18.4841L10.7597 18.4954C12.1948 18.5293 14.9594 18.2807 15.7052 18.0472C16.1083 17.9229 16.3192 17.8024 16.3493 17.6856C16.3644 17.6291 16.3456 17.4747 16.3079 17.3278C16.2589 17.1432 16.2476 16.9775 16.2589 16.7176L16.274 16.3635L16.8428 15.2373C18.0631 12.8304 18.5151 11.7042 18.4586 11.2259C18.4134 10.8078 18.1837 10.514 17.4605 9.9452C17.0311 9.60244 16.21 9.03368 15.7693 8.77002C15.5772 8.65326 15.5395 8.61559 15.5546 8.54779C15.5659 8.50259 15.8032 7.16168 16.0819 5.56463C16.4322 3.56833 16.5829 2.62291 16.5678 2.53251C16.5113 2.23118 16.2476 1.90725 15.984 1.82062C15.8484 1.77918 15.3813 1.69255 11.1627 0.954296C9.74269 0.701933 8.5449 0.498535 8.50724 0.498535C8.46957 0.502302 8.37164 0.524902 8.29254 0.551268ZM12.0592 1.72268C14.0027 2.06168 15.6563 2.35924 15.7316 2.38184C15.8258 2.40821 15.8936 2.45717 15.9275 2.52874C15.9802 2.62667 15.9501 2.82254 15.5433 5.1277L15.1026 7.62497L15.0574 7.26337C15.0046 6.83398 14.8916 6.39705 14.7673 6.15599C14.6581 5.94129 14.3493 5.64373 14.1308 5.5458C13.8031 5.39513 13.3624 5.478 13.1515 5.73036C13.0121 5.89986 12.9895 6.06559 13.0648 6.48369C13.0987 6.68332 13.1251 6.90931 13.1251 6.98841C13.1251 7.11648 13.1176 7.12778 13.0422 7.10894C12.771 7.04491 8.22851 6.26146 8.13058 6.26146C7.89328 6.26146 7.87068 6.32925 7.65222 7.57224C7.54298 8.19749 7.44505 8.71729 7.43375 8.72859C7.42245 8.73989 7.30569 8.75872 7.17762 8.77379L6.94033 8.79639L6.96293 8.68715C6.97423 8.62689 7.27179 6.94698 7.62208 4.95821C7.97238 2.96567 8.27747 1.29706 8.30384 1.25562C8.32644 1.21042 8.38294 1.15769 8.42814 1.13886C8.47334 1.12003 8.51477 1.10496 8.51854 1.10496C8.51854 1.10119 10.1118 1.37992 12.0592 1.72268ZM13.9425 6.13339C14.1157 6.21626 14.2287 6.37822 14.3229 6.67578C14.5188 7.27844 14.5263 7.94513 14.353 8.52142C14.1911 9.04875 14.1647 9.24838 14.2099 9.57608C14.2664 9.98287 14.3869 10.2767 14.5753 10.4763C14.7636 10.6722 14.9142 10.6985 15.0649 10.5554C15.1779 10.4462 15.1854 10.3106 15.08 10.1599C14.854 9.82467 14.805 9.68154 14.8012 9.34255C14.8012 9.16175 14.8201 8.99602 14.8389 8.97718C14.8653 8.95082 15.0235 9.02615 15.3286 9.21071C16.6205 9.99417 17.6149 10.7626 17.8145 11.1355C17.8786 11.2522 17.8823 11.2937 17.8447 11.4707C17.743 11.9528 17.2495 13.0828 16.3832 14.8117C15.6676 16.2354 15.6337 16.3371 15.6563 16.9963L15.6676 17.4257L15.4981 17.4747C14.8427 17.6668 13.2758 17.825 11.5318 17.8739C11.1024 17.889 11.0158 17.8815 11.0309 17.84C11.0422 17.8099 11.2004 17.5877 11.3849 17.3428C12.1533 16.3258 12.5676 15.5951 12.7183 14.9849C12.7936 14.6874 12.7974 14.6233 12.756 14.3597C12.7334 14.1977 12.6279 13.8022 12.5262 13.4858C12.2475 12.6383 12.2098 12.4312 12.2098 11.8172C12.2098 11.256 12.255 10.9697 12.432 10.4499C12.5601 10.0657 12.8916 9.37268 13.1402 8.97342C13.5093 8.38583 13.6826 7.8472 13.7165 7.18051C13.7315 6.86035 13.724 6.69462 13.675 6.47239C13.6374 6.31042 13.6185 6.15599 13.6298 6.12586C13.6562 6.05429 13.7805 6.05806 13.9425 6.13339ZM8.9291 6.99594L9.27186 7.05998L9.20029 7.45924C9.16263 7.68147 9.12496 7.8811 9.11743 7.9037C9.10613 7.93007 8.96676 7.91877 8.67297 7.8698C8.43944 7.82837 8.24358 7.7907 8.23604 7.78693C8.23228 7.78317 8.25864 7.5873 8.30384 7.35377C8.34527 7.11648 8.37917 6.92061 8.37917 6.90931C8.37917 6.90178 8.42437 6.90555 8.48464 6.91685C8.54114 6.92815 8.74077 6.96581 8.9291 6.99594ZM10.1344 7.20311C10.7634 7.31611 10.7597 7.31234 10.7371 7.42157C10.7258 7.47807 10.6919 7.6777 10.658 7.86603L10.5977 8.20503L10.157 8.1297C9.91595 8.0845 9.72009 8.03176 9.72385 8.01293C9.75022 7.7681 9.86322 7.16544 9.88582 7.16544C9.89712 7.16544 10.0101 7.18428 10.1344 7.20311ZM11.8181 7.50067C12.0215 7.53834 12.1948 7.57977 12.2098 7.59107C12.2211 7.60614 12.1985 7.802 12.1609 8.03176C12.1081 8.34816 12.078 8.44609 12.0328 8.44609C11.8595 8.44986 11.2041 8.31049 11.2041 8.27283C11.2041 8.22763 11.3021 7.68147 11.336 7.51197C11.3586 7.41404 11.3473 7.41404 11.8181 7.50067ZM13.0121 7.76057C13.0121 7.8585 12.884 8.21633 12.7899 8.39336L12.707 8.54026L12.7296 8.35193C12.7409 8.24646 12.7673 8.05813 12.7899 7.9263C12.8275 7.71537 12.8388 7.69277 12.9217 7.69277C12.9857 7.69277 13.0121 7.71537 13.0121 7.76057ZM8.97806 8.54402C9.0082 8.55156 9.02326 8.56662 9.01573 8.57416C8.98936 8.60052 8.11174 8.68339 8.09291 8.66079C8.08161 8.64949 8.08538 8.58546 8.09668 8.51389L8.12304 8.38206L8.5223 8.45362C8.74453 8.49129 8.94793 8.53272 8.97806 8.54402ZM10.4809 8.80392C10.496 8.81522 10.3453 9.65517 10.3265 9.67777C10.3152 9.68907 9.69372 9.58738 9.59579 9.55724C9.56189 9.54594 9.56189 9.51581 9.60332 9.43671C9.67112 9.30865 9.67489 9.04122 9.61462 8.87549C9.53552 8.64949 9.56566 8.63819 10.044 8.72105C10.2775 8.76249 10.4734 8.80015 10.4809 8.80392ZM11.5808 8.99225C11.7767 9.02615 11.9462 9.06005 11.9537 9.06758C11.9763 9.09018 11.8369 9.91507 11.8106 9.93014C11.7842 9.9452 10.9706 9.80961 10.948 9.78701C10.9367 9.77194 10.9819 9.47438 11.0572 9.09395C11.0874 8.93575 11.11 8.89808 11.1589 8.91315C11.1928 8.92445 11.3849 8.95835 11.5808 8.99225ZM9.0195 9.23331C9.0195 9.32371 8.7483 9.65141 8.5449 9.80584C8.23604 10.0356 7.85561 10.19 7.29439 10.3068C6.75576 10.416 6.47327 10.5516 6.19454 10.8266C5.97984 11.0375 5.87061 11.2296 5.83294 11.4518C5.81411 11.5799 5.82918 11.6402 5.94217 11.8398C6.1418 12.2014 6.2096 12.4538 6.2096 12.7965C6.2096 13.1355 6.13804 13.3879 5.96477 13.6629C5.79528 13.9303 5.78774 14.032 5.92334 14.1713C5.98737 14.2316 6.07024 14.2843 6.11167 14.2843C6.2096 14.2843 6.39417 14.1299 6.4921 13.9679L6.5712 13.8436L7.29062 14.0056C7.68612 14.0922 8.01758 14.1751 8.02888 14.1864C8.06654 14.2203 7.62585 14.7966 7.27932 15.1695C6.3339 16.1752 5.20768 16.7703 3.8969 16.9586L3.57674 17.0076L3.17748 17.3956L2.78199 17.7873L2.64639 17.6442C2.31869 17.2976 2.0249 16.8004 1.86293 16.3183C1.7763 16.0471 1.652 15.3428 1.62563 14.9548L1.6068 14.6987L1.93826 14.2693C2.54469 13.4745 3.01552 12.7212 3.50141 11.7645C3.73494 11.3087 3.79144 11.2259 4.13797 10.868C4.76699 10.2126 5.56175 9.67777 6.13804 9.51958C6.26234 9.48568 6.92526 9.40281 7.60702 9.33125C9.0534 9.18811 9.0195 9.18811 9.0195 9.23331ZM10.5261 10.3332C11.1363 10.4424 11.6524 10.5441 11.6712 10.5592C11.7164 10.6006 11.577 11.4217 11.5281 11.4217C11.4188 11.4255 9.26056 11.03 9.23043 11.0036C9.18523 10.9622 9.32083 10.1411 9.37356 10.1411C9.39616 10.1411 9.91218 10.2277 10.5261 10.3332ZM8.6353 10.6759C8.61647 10.7852 8.59387 10.8831 8.58634 10.8906C8.5788 10.8982 8.42437 10.8793 8.24734 10.853C8.07031 10.8266 7.93848 10.7965 7.95355 10.7814C7.96861 10.7701 8.10798 10.7098 8.25864 10.6496C8.40931 10.5893 8.54114 10.529 8.55244 10.5102C8.56374 10.4951 8.59387 10.4801 8.62024 10.4801C8.66167 10.4801 8.66167 10.5215 8.6353 10.6759ZM7.21152 11.256C7.26426 11.2824 8.23981 11.4631 9.37733 11.6628C10.5186 11.8624 11.4866 12.0319 11.5356 12.0432C11.6034 12.0583 11.6185 12.0884 11.6185 12.2089C11.6185 12.4575 11.7277 12.951 11.9236 13.58C12.0253 13.9114 12.1081 14.2052 12.1081 14.2354C12.1081 14.2693 12.078 14.2806 12.0253 14.2655C11.9763 14.2542 11.5921 14.1864 11.1665 14.1148C10.7408 14.0395 10.3679 13.9717 10.3378 13.9604C10.3039 13.9453 10.3529 13.919 10.4583 13.8926C11.238 13.6855 11.4753 12.676 10.8727 12.1298C10.6542 11.934 10.432 11.8586 10.1156 11.8812C9.55436 11.9227 9.17393 12.3332 9.17016 12.8907C9.17016 13.2711 9.33966 13.5649 9.69749 13.8097L9.79165 13.8738L9.69749 13.8549C9.64476 13.8436 9.31706 13.7834 8.963 13.7194C8.27747 13.5951 6.86876 13.3088 6.82733 13.2824C6.81603 13.2749 6.80473 13.0828 6.80473 12.8606C6.80473 12.4123 6.74446 12.1185 6.5712 11.7343C6.48833 11.5573 6.4695 11.4707 6.4921 11.4104C6.5373 11.2974 6.7068 11.1468 6.89136 11.0526L7.04203 10.9773L7.07969 11.094C7.09852 11.1618 7.15879 11.2334 7.21152 11.256ZM10.4207 12.627C10.6316 12.789 10.6504 13.0979 10.4583 13.2787C10.1683 13.5536 9.73515 13.3578 9.73515 12.951C9.73515 12.838 9.76152 12.7815 9.86322 12.6798C9.97245 12.5705 10.0176 12.5517 10.1608 12.5517C10.27 12.5517 10.3604 12.5781 10.4207 12.627Z" stroke="white" stroke-width="0.2" mask="url(#path-1-outside-1_31_2382)"/>
</svg>
