<svg width="18" height="23" viewBox="0 0 18 23" fill="none" xmlns="http://www.w3.org/2000/svg">
<path d="M12.1502 0H0V22.6653H18V5.85671L12.1502 0ZM14.9852 5.33949H12.6675V3.01894L14.9852 5.33949ZM1.76599 20.8972V1.76808H10.9016V6.22353C10.9016 6.71175 11.2968 7.10757 11.7846 7.10757H16.234V20.8972H1.76599Z" fill="#008ABD"/>
<path d="M14.0627 17.5634H3.93701V18.7421H14.0627V17.5634Z" fill="#008ABD"/>
<path d="M9.9482 6.49487H3.93701V7.67358H9.9482V6.49487Z" fill="#008ABD"/>
<path d="M11.9556 10.2472H12.608L10.0863 12.7718L8.11453 10.7977L3.75537 15.1623L4.58774 15.9959L8.11453 12.4647L10.0863 14.4387L13.4405 11.0806V11.7324H14.6178V9.06848H11.9556V10.2472Z" fill="#008ABD"/>
<path d="M9.9482 3.92313H3.93701V5.10187H9.9482V3.92313Z" fill="#008ABD"/>
</svg>
