<svg width="16" height="20" viewBox="0 0 16 20" fill="none" xmlns="http://www.w3.org/2000/svg">
<path d="M1.26377 0.759924C0.669926 0.874979 0.154027 1.40201 0.0389708 2.01812C-0.0129903 2.28906 -0.0129903 18.152 0.0389708 18.423C0.157739 19.0539 0.669926 19.5661 1.29717 19.6849C1.42336 19.7071 2.97477 19.722 5.49859 19.722H9.5033V19.2989C9.5033 17.8848 9.84476 16.6155 10.5388 15.4426C10.6724 15.2125 10.7652 15.0158 10.7652 14.9527C10.7652 14.8636 10.5796 14.6595 9.56268 13.6388C8.77213 12.8409 8.33418 12.3732 8.2785 12.2656C7.93705 11.5827 8.44181 10.7884 9.21009 10.7995C9.61464 10.8032 9.60722 10.7995 11.4073 12.5922L13.0663 14.2475L13.2965 14.0137L13.5303 13.7836L12.4614 12.7147L11.3962 11.6495V6.85421C11.3962 2.32247 11.3925 2.05153 11.3294 1.84368C11.1586 1.3018 10.7541 0.923229 10.1825 0.774769C10.0006 0.726521 9.3734 0.719097 5.69901 0.722809C3.35334 0.726521 1.35655 0.741365 1.26377 0.759924ZM10.2308 1.45026C10.5759 1.63584 10.7355 1.89935 10.7578 2.32247L10.7726 2.61196H5.70272H0.632811V2.41525C0.632811 1.95131 0.866636 1.57274 1.23779 1.42799C1.42707 1.35376 1.51615 1.35376 5.75468 1.36119L10.0786 1.36861L10.2308 1.45026ZM10.7652 7.12515V11.0074L10.4683 10.7327C10.305 10.5806 10.0786 10.4135 9.97095 10.3579C9.42907 10.0832 8.73873 10.1203 8.25995 10.4469C7.69209 10.8366 7.41372 11.5604 7.58816 12.2062C7.70322 12.6367 7.7923 12.7481 8.94286 13.9135L10.0452 15.0269L9.84847 15.3795C9.31772 16.3334 9.00596 17.38 8.90204 18.5603L8.8575 19.091H5.15713C1.51986 19.091 1.44934 19.091 1.24892 19.0168C0.989115 18.9166 0.770137 18.6865 0.692195 18.4192C0.651368 18.2819 0.632811 18.0704 0.632811 17.7104V17.1982H4.58556H8.53831V16.8827V16.5672H4.58556H0.632811V9.90506V3.24292H5.69901H10.7652V7.12515Z" fill="white"/>
<path d="M1.75012 3.91096C1.56826 3.9555 1.44207 4.05942 1.34928 4.245C1.26763 4.40088 1.26392 4.45284 1.26392 5.15431C1.26392 6.01909 1.29361 6.13415 1.56455 6.3123L1.72414 6.41622H2.52212C3.29782 6.41622 3.32751 6.41251 3.47597 6.32715C3.76547 6.16384 3.78774 6.07848 3.78774 5.1506C3.78774 4.39346 3.78403 4.33036 3.7098 4.21159C3.60587 4.04086 3.50195 3.95921 3.31638 3.91467C3.13822 3.86642 1.93941 3.86642 1.75012 3.91096ZM3.15678 5.15431V5.80383L2.53696 5.7964L1.91343 5.78527L1.90229 5.19143C1.89858 4.86853 1.90229 4.57903 1.90972 4.55305C1.92456 4.51594 2.07673 4.5048 2.54438 4.5048H3.15678V5.15431Z" fill="white"/>
<path d="M4.90095 3.9221C4.71908 3.98148 4.63001 4.05571 4.53351 4.20788C4.45928 4.33036 4.45557 4.38603 4.45557 5.1506C4.45557 6.07848 4.47784 6.16384 4.76733 6.32715C4.91579 6.41251 4.94548 6.41622 5.72119 6.41622H6.51916L6.67504 6.31601C6.93856 6.13786 6.96083 6.07105 6.97196 5.24339C6.98681 4.47511 6.96083 4.28953 6.82722 4.11881C6.66391 3.91467 6.57855 3.8924 5.77315 3.88498C5.26467 3.87756 4.99002 3.8924 4.90095 3.9221ZM6.32987 5.15431V5.78527L5.71005 5.7964L5.08652 5.80383V5.15431V4.5048L5.71005 4.51222L6.32987 4.52336V5.15431Z" fill="white"/>
<path d="M8.04465 3.92952C7.86649 3.99261 7.72917 4.11509 7.66236 4.27098C7.58813 4.4417 7.58813 5.86692 7.66236 6.03765C7.72175 6.17869 7.90732 6.34942 8.04836 6.39024C8.17826 6.42365 9.56636 6.42365 9.69626 6.39024C9.8373 6.34942 10.0229 6.17869 10.0823 6.03765C10.1565 5.86692 10.1565 4.4417 10.0823 4.27098C10.0192 4.11509 9.8373 3.96292 9.65915 3.91096C9.45131 3.85529 8.21538 3.86642 8.04465 3.92952ZM9.50327 5.15431V5.80383H8.87231H8.24136V5.15431V4.5048H8.87231H9.50327V5.15431Z" fill="white"/>
<path d="M1.57925 7.15482C1.30088 7.32184 1.28233 7.38865 1.27119 8.26085C1.25634 9.14047 1.28604 9.26667 1.54584 9.46338L1.68317 9.57101L2.46258 9.58214C3.35705 9.59699 3.49067 9.57101 3.66882 9.33718L3.76903 9.20728L3.78017 8.34992C3.7913 7.5037 3.7913 7.48886 3.70594 7.36638C3.51665 7.08801 3.50551 7.0843 2.57022 7.07317C1.73513 7.06575 1.72771 7.06575 1.57925 7.15482ZM3.15663 8.32766V8.95861H2.52568H1.89472V8.32766V7.6967H2.52568H3.15663V8.32766Z" fill="white"/>
<path d="M4.80826 7.11771C4.67465 7.17338 4.50392 7.36638 4.47051 7.48886C4.45938 7.53339 4.45567 7.93795 4.46309 8.38704L4.47422 9.20728L4.57444 9.33718C4.75259 9.57101 4.8862 9.59699 5.78067 9.58214L6.56009 9.57101L6.69741 9.46338C6.95722 9.26667 6.98691 9.14047 6.97207 8.25714C6.96093 7.50741 6.95722 7.48514 6.86814 7.35153C6.68628 7.0843 6.60834 7.06575 5.71387 7.06575C5.13858 7.06946 4.88991 7.08059 4.80826 7.11771ZM6.34853 8.32766V8.95861H5.71758H5.08662V8.32766V7.6967H5.71758H6.34853V8.32766Z" fill="white"/>
<path d="M8.01862 7.09177C7.885 7.14373 7.75139 7.26621 7.68458 7.39982C7.61777 7.52972 7.61035 7.62251 7.61035 8.30914C7.61035 9.14052 7.62891 9.2333 7.8182 9.41146C7.99264 9.57476 8.08914 9.58961 8.87226 9.58961C9.65539 9.58961 9.75189 9.57476 9.92633 9.41146C10.1156 9.2333 10.1342 9.14052 10.1342 8.30914C10.1342 7.45178 10.1082 7.34415 9.86694 7.16971C9.74818 7.08806 9.71848 7.08434 8.90938 7.07692C8.44915 7.07321 8.04831 7.08063 8.01862 7.09177ZM9.50322 8.3277V8.95865H8.87226H8.24131V8.3277V7.69674H8.87226H9.50322V8.3277Z" fill="white"/>
<path d="M1.65357 10.2725C1.50511 10.3356 1.34922 10.5212 1.29726 10.6956C1.27128 10.781 1.26386 11.1039 1.27128 11.5789C1.28242 12.3027 1.28613 12.3287 1.3752 12.4586C1.42345 12.5328 1.53109 12.6256 1.60532 12.6701C1.73893 12.7443 1.78718 12.7481 2.57773 12.7369C3.50561 12.7258 3.51674 12.7221 3.70603 12.4437C3.79139 12.3212 3.79139 12.3064 3.78026 11.4565C3.76912 10.4803 3.7617 10.4618 3.45365 10.3022C3.29776 10.2242 3.2458 10.2205 2.52577 10.2205C1.97647 10.2242 1.73151 10.2354 1.65357 10.2725ZM3.15673 11.4824V12.1134H2.52577H1.89482V11.4824V10.8515H2.52577H3.15673V11.4824Z" fill="white"/>
<path d="M4.78974 10.3022C4.48169 10.4618 4.47427 10.4803 4.46313 11.4565C4.452 12.3064 4.452 12.3212 4.53736 12.4437C4.72665 12.7221 4.73778 12.7258 5.66566 12.7369C6.45621 12.7481 6.50446 12.7443 6.63807 12.6701C6.7123 12.6256 6.81994 12.5328 6.86819 12.4586C6.95726 12.3287 6.96097 12.3027 6.97211 11.5789C6.98695 10.7698 6.96468 10.6325 6.80509 10.4395C6.63436 10.2391 6.54157 10.2205 5.70649 10.2205C4.99759 10.2205 4.94563 10.2242 4.78974 10.3022ZM6.34858 11.4824V12.1134H5.71762H5.08666V11.4824V10.8515H5.71762H6.34858V11.4824Z" fill="white"/>
<path d="M1.75012 13.4124C1.56826 13.4569 1.44207 13.5609 1.34928 13.7464C1.26763 13.9023 1.26392 13.9543 1.26392 14.6558C1.26392 15.5205 1.29361 15.6356 1.56455 15.8137L1.72414 15.9177H2.52212C3.29782 15.9177 3.32751 15.914 3.47597 15.8286C3.76547 15.6653 3.78774 15.5799 3.78774 14.652C3.78774 13.8949 3.78403 13.8318 3.7098 13.713C3.60587 13.5423 3.50195 13.4607 3.31638 13.4161C3.13822 13.3679 1.93941 13.3679 1.75012 13.4124ZM3.15678 14.6558V15.3053L2.53696 15.2978L1.91343 15.2867L1.90229 14.6929C1.89858 14.37 1.90229 14.0805 1.90972 14.0545C1.92456 14.0174 2.07673 14.0062 2.54438 14.0062H3.15678V14.6558Z" fill="white"/>
<path d="M4.90095 13.4235C4.71908 13.4829 4.63001 13.5572 4.53351 13.7093C4.45928 13.8318 4.45557 13.8875 4.45557 14.652C4.45557 15.5799 4.47784 15.6653 4.76733 15.8286C4.91579 15.914 4.94548 15.9177 5.72119 15.9177H6.51916L6.67504 15.8175C6.93856 15.6393 6.96083 15.5725 6.97196 14.7448C6.98681 13.9766 6.96083 13.791 6.82722 13.6202C6.66391 13.4161 6.57855 13.3938 5.77315 13.3864C5.26467 13.379 4.99002 13.3938 4.90095 13.4235ZM6.32987 14.6558V15.2867L5.71005 15.2978L5.08652 15.3053V14.6558V14.0062L5.71005 14.0137L6.32987 14.0248V14.6558Z" fill="white"/>
<path d="M5.38354 18.1446V18.4601H5.69902H6.0145V18.1446V17.8291H5.69902H5.38354V18.1446Z" fill="white"/>
<path d="M12.1198 8.32768C12.001 8.45016 11.9082 8.55408 11.9194 8.5615C12.1755 8.78048 13.879 10.3542 14.0015 10.4915C14.1945 10.703 14.4061 11.089 14.5026 11.4082C14.562 11.5938 14.5657 12.0058 14.5768 15.6653L14.5916 19.722H14.9071H15.2226L15.2115 15.6282C15.1966 11.8016 15.1929 11.5233 15.1298 11.2969C15.0333 10.9591 14.8143 10.5026 14.6213 10.2465C14.4989 10.0795 12.4056 8.10499 12.3536 8.10499C12.3462 8.10499 12.2423 8.2052 12.1198 8.32768Z" fill="white"/>
</svg>
