<svg width="26" height="26" viewBox="0 0 26 26" fill="none" xmlns="http://www.w3.org/2000/svg">
<path d="M0 13C0 5.8203 5.8203 0 13 0C20.1797 0 26 5.8203 26 13C26 20.1797 20.1797 26 13 26C5.8203 26 0 20.1797 0 13Z" fill="#FF0000"/>
<path d="M19.6435 9.78966C19.4841 9.17704 19.0142 8.69462 18.4175 8.53089C17.3362 8.23334 13 8.23334 13 8.23334C13 8.23334 8.66374 8.23334 7.58237 8.53089C6.98571 8.69462 6.51582 9.17704 6.35635 9.78966C6.06665 10.9 6.06665 13.2167 6.06665 13.2167C6.06665 13.2167 6.06665 15.5333 6.35635 16.6437C6.51582 17.2563 6.98571 17.7387 7.58237 17.9025C8.66374 18.2 13 18.2 13 18.2C13 18.2 17.3362 18.2 18.4175 17.9025C19.0142 17.7387 19.4841 17.2563 19.6435 16.6437C19.9333 15.5333 19.9333 13.2167 19.9333 13.2167C19.9333 13.2167 19.9333 10.9 19.6435 9.78966Z" fill="white"/>
<path d="M11.7 15.6V11.2667L15.1666 13.4334L11.7 15.6Z" fill="#FF0000"/>
</svg>
