<svg width="263" height="99" viewBox="0 0 263 99" fill="none" xmlns="http://www.w3.org/2000/svg">
    <path d="M0 86.9315C0.117987 86.8281 0.34167 86.8995 0.398206 86.6705C0.410496 86.6188 0.57027 86.577 0.663676 86.5745C1.07663 86.5598 1.48958 86.5548 1.90008 86.5622C2.05985 86.5647 2.20488 86.5622 2.3032 86.4121C2.78744 85.6712 3.60843 85.5038 4.35322 85.2133C4.36797 85.2084 4.38272 85.2084 4.39747 85.2035C4.94316 84.9746 5.49868 84.7826 6.09844 84.7432C6.33196 84.7284 6.53598 84.5955 6.64413 84.3691C6.67855 84.2952 6.70313 84.1697 6.6638 84.118C6.45978 83.8399 6.2361 83.5765 5.99275 83.2737C6.03453 83.2393 6.09844 83.1629 6.18202 83.1186C6.39833 83.003 6.61955 82.9045 6.84078 82.7962C7.23407 82.6042 7.22669 82.6042 7.19228 82.1488C7.18491 82.0504 7.22915 81.9445 7.25865 81.8436C7.3496 81.5162 7.40859 81.1938 7.22669 80.9279C7.40613 80.5046 7.56099 80.1157 7.73551 79.7366C7.78221 79.6381 7.88054 79.5151 7.97149 79.5003C8.05506 79.488 8.17059 79.5938 8.24925 79.6701C8.32545 79.7464 8.37215 79.8498 8.44343 79.9606C8.91784 79.3501 8.91784 79.3501 9.29146 79.8252C9.46598 79.8203 9.64788 79.8498 9.70196 79.5865C9.71671 79.5126 9.84453 79.4486 9.93547 79.4068C10.0436 79.3575 10.1739 79.3526 10.2771 79.2985C10.4123 79.2295 10.518 79.2295 10.6606 79.2911C10.872 79.3797 11.0981 79.4117 11.3046 79.2295C11.3636 79.1778 11.5013 79.1335 11.5504 79.168C11.9019 79.4018 12.219 79.2345 12.5435 79.1114C12.5976 79.0917 12.659 79.0892 12.7844 79.0671C12.8065 79.3354 12.8262 79.5815 12.8458 79.8252C13.0695 79.8572 13.0892 79.6997 13.1137 79.5717C13.2514 78.8431 13.5636 78.1785 13.861 77.5065C14.3354 76.4309 14.9966 75.4807 15.7881 74.6217C16.673 73.6592 17.6857 72.8519 18.7992 72.1627C19.7407 71.5818 20.7878 71.3135 21.8374 71.0378C22.2061 70.9418 22.5822 70.8655 22.9509 70.7719C23.091 70.735 23.2213 70.6686 23.3319 70.6267C23.2188 70.3683 23.1574 70.1369 23.0271 69.9547C22.9435 69.8366 22.7641 69.7603 22.6141 69.7234C22.4101 69.6717 22.1914 69.6766 21.9775 69.6594C21.7833 69.6446 21.6678 69.5388 21.6432 69.3468C21.6088 69.0908 21.5818 68.8348 21.5449 68.5369C21.7587 68.4606 21.9554 68.3942 22.1963 68.308C22.1963 64.7635 22.1963 61.2018 22.1963 57.5982C22.5748 57.6253 22.9017 57.6573 23.2311 57.6721C24.2733 57.7164 25.3057 57.8173 26.2914 58.1791C26.6036 58.2948 26.9059 58.4523 27.1886 58.6296C27.6556 58.9225 27.9088 59.3582 27.9703 59.9144C28.0538 60.6627 28.452 61.155 29.1698 61.2953C30.126 61.4849 31.0871 61.7088 32.0703 61.6596C32.5791 61.635 33.0855 61.5439 33.614 61.4824C32.8348 62.0608 31.972 62.3956 30.9199 62.4867C31.3796 62.7648 31.7901 62.8165 32.1957 62.8116C32.6037 62.8042 33.0093 62.723 33.5083 62.6639C33.3755 62.7599 33.3092 62.8264 33.2305 62.8608C32.0138 63.422 30.7282 63.6731 29.3959 63.582C28.221 63.5033 27.3017 62.9691 26.7781 61.859C26.5249 61.3175 26.0579 61.0344 25.5171 60.872C24.8682 60.6775 24.1996 60.616 23.5212 60.6726C23.2508 60.6947 22.9804 60.7341 22.6879 60.7686C22.6879 63.2694 22.6879 65.7432 22.6879 68.244C23.3614 68.3745 23.9882 68.1923 24.6027 67.9733C25.1926 67.7616 25.2418 67.705 25.3942 67.4711C25.2639 67.3998 25.1287 67.3358 25.0058 67.2545C24.5265 66.9321 24.5363 66.4152 25.0255 66.1099C25.1509 66.0312 25.2787 65.9623 25.4409 65.8687C25.1705 65.6817 24.8903 65.5733 24.8756 65.2214C24.8608 64.8841 25.1066 64.7488 25.3328 64.5666C25.3131 64.51 25.2959 64.4558 25.2762 64.4041C25.1877 64.1802 25.6056 64.0079 25.3426 63.7666C25.409 63.5549 25.4581 63.3334 25.5441 63.1291C25.6351 62.91 25.7629 62.7033 25.8735 62.4941C25.8784 62.4867 25.903 62.4867 25.9792 62.4719C26.0284 62.9691 26.4315 63.3802 26.2816 63.934C26.2717 63.9709 26.2816 64.0374 26.3086 64.0571C26.552 64.2245 26.3725 64.4066 26.3209 64.5592C26.343 64.6109 26.3455 64.6528 26.3651 64.6651C26.7953 64.9112 26.7265 64.958 26.579 65.4109C26.547 65.5093 26.4463 65.593 26.429 65.6915C26.4118 65.7973 26.4536 65.9155 26.4856 66.0213C26.4954 66.0583 26.552 66.0804 26.5864 66.1124C27.0681 66.5555 27.0976 66.9788 26.5421 67.3505C26.4512 67.4121 26.3873 67.5154 26.2766 67.6336C26.842 67.9093 27.3434 68.1874 27.8695 68.4065C28.5626 68.692 28.7544 68.9899 28.6511 69.7431C28.6339 69.8612 28.6364 69.9892 28.661 70.1074C28.7101 70.3412 28.6659 70.5233 28.3095 70.6587C28.5454 70.7547 28.6733 70.8187 28.806 70.8606C30.035 71.2421 31.2198 71.7245 32.3653 72.3104C33.6435 72.9627 34.6758 73.9079 35.5853 74.9934C36.6964 76.3201 37.5542 77.792 38.0114 79.4781C38.0876 79.7563 38.1368 80.0418 38.2081 80.3766C38.7906 80.2486 39.1987 80.6375 39.6165 80.9747C39.8869 80.5833 39.4568 80.5981 39.3584 80.3569C39.4936 80.1846 39.6313 79.968 39.8107 79.7907C39.9336 79.6701 39.9852 79.5594 39.9607 79.392C39.8894 78.8923 40 78.8086 40.5137 78.976C40.5334 79.1951 40.5531 79.4215 40.5752 79.6628C40.7915 79.8277 41.0594 79.9704 41.116 80.2904C41.1282 80.3593 41.1479 80.4406 41.1258 80.5021C41.025 80.7778 41.0201 80.7778 41.3347 80.9083C41.3618 80.8246 41.3814 80.7384 41.4207 80.6646C41.4625 80.5858 41.5117 80.4603 41.5732 80.4504C41.8853 80.3963 42.2098 80.3175 42.5146 80.3569C42.6867 80.379 42.844 80.5981 42.9841 80.7483C43.075 80.8443 43.0775 81.0756 43.3479 80.859C43.2102 80.7163 43.0824 80.5809 42.93 80.4209C43.1094 80.2584 43.3749 80.1797 43.4708 79.8843C43.5322 79.6948 43.7338 79.5791 43.5765 79.3231C43.5396 79.2615 43.751 79.0474 43.8321 78.9243C44.1639 78.9834 44.1344 79.2246 44.1934 79.3994C44.2721 79.6357 44.3409 79.8671 44.6433 79.8769C44.9259 79.5692 44.776 79.0203 45.2947 78.8505C45.3561 79.0006 45.5331 79.0695 45.5011 79.3034C45.4864 79.4191 45.6289 79.5791 45.7371 79.6824C45.8477 79.7883 46.0075 79.8449 46.155 79.7292C46.2902 79.6234 46.2287 79.5028 46.182 79.3625C46.0444 78.9317 46.2656 78.7742 46.8924 78.8899C46.8924 79.0252 46.8752 79.1754 46.8948 79.3206C46.9416 79.6652 47.2857 79.8621 47.4995 79.6628C47.5708 79.5963 47.5806 79.456 47.6077 79.3477C47.647 79.1877 47.647 79.0105 47.7232 78.8702C47.765 78.7939 47.9346 78.7348 48.028 78.752C48.119 78.7692 48.2689 78.9194 48.2542 78.976C48.146 79.4018 48.4975 79.5446 48.7015 79.808C48.8072 79.7144 48.9055 79.6431 48.9817 79.552C49.1046 79.4043 49.2423 79.2738 49.1243 79.0302C49.0432 78.8603 49.1882 78.6782 49.3455 78.6683C49.5201 78.6585 49.6823 78.7914 49.6995 78.9563C49.7437 79.424 49.7437 79.424 50.1641 79.7169C50.2845 79.5741 50.4099 79.4314 50.5303 79.2812C50.6164 79.1729 50.6557 79.0818 50.5598 78.9292C50.4812 78.8037 50.6532 78.6043 50.8204 78.5773C50.9654 78.5526 51.1866 78.6929 51.1424 78.8259C50.9851 79.2935 51.3833 79.4166 51.6266 79.7144C51.8183 79.4732 51.9904 79.2591 52.1551 79.0498C52.0543 78.8997 51.9879 78.8012 51.8945 78.6609C52.0371 78.5945 52.1477 78.5108 52.2706 78.4886C52.5533 78.4394 52.6959 78.5846 52.6025 78.8505C52.5533 78.9908 52.5582 79.0745 52.6442 79.168C52.7155 79.2443 52.8016 79.3058 52.8679 79.3846C52.9343 79.4634 52.9859 79.5569 53.0523 79.6554C53.2514 79.5495 53.217 79.3821 53.1752 79.2517C53.099 79.0129 53.1654 78.8652 53.3522 78.6979C53.5857 78.4886 53.8143 78.3188 54.1314 78.2523C54.4706 78.1834 54.5763 77.9274 54.4755 77.541C54.4116 77.2997 54.2789 77.2579 53.8856 77.3514C53.8315 77.6444 54.1437 77.5459 54.2371 77.6788C53.8979 78.0136 53.7381 77.989 53.3767 77.5287C53.4529 77.1816 53.657 76.9035 53.947 76.6918C54.4263 76.3422 54.5886 75.8278 54.5763 75.2887C54.564 74.7275 54.4485 74.1688 54.3649 73.61C54.3477 73.4943 54.2764 73.3786 54.2051 73.2851C53.711 72.6254 53.217 71.9633 52.7082 71.3159C52.4353 70.9689 52.3247 70.9566 51.9314 71.1264C51.8773 71.1486 51.8233 71.1781 51.7766 71.2027C51.2112 70.8556 50.3509 71.0255 49.9748 71.5547C49.8961 71.6655 49.8298 71.7885 49.7708 71.9141C49.4635 72.5639 49.1243 72.746 48.4238 72.6377C48.35 72.6254 48.2763 72.6156 48.173 72.6033C48.0944 72.9996 47.9125 73.3245 47.6175 73.5829C47.5659 73.6272 47.5118 73.7282 47.5266 73.7823C47.6126 74.1072 47.3791 74.2475 47.1751 74.4198C46.9194 74.2992 46.7228 74.1417 46.6957 73.8168C46.6859 73.6986 46.595 73.5362 46.4942 73.4845C46.2533 73.359 46.2066 73.1448 46.155 72.9233C46.0468 72.4531 45.9141 72.3325 45.4618 72.2956C45.1029 72.2661 44.9874 72.079 45.1201 71.7368C45.1373 71.695 45.1472 71.6433 45.1791 71.6138C45.6412 71.1707 45.5134 70.644 45.3905 70.0483C44.9333 70.3978 44.5892 70.8261 44.0337 70.9812C43.4781 71.1362 42.9546 70.8778 42.3646 70.9393C42.4605 71.5842 42.2811 72.0347 41.5461 72.1061C41.6641 72.3645 41.5633 72.527 41.3962 72.6993C41.2634 72.8347 41.1553 72.9331 40.9685 72.8445C40.7817 72.7559 40.6956 72.6008 40.7276 72.3965C40.7448 72.2784 40.789 72.1627 40.8284 72.0199C40.5506 71.9264 40.2851 71.8353 39.968 71.727C40.0049 71.5695 40.0369 71.4292 40.0713 71.2889C40.1524 70.9738 40.1254 70.9246 39.8427 70.7449C39.5821 70.5775 39.4469 70.3609 39.4887 70.0187C39.5625 69.428 39.5944 68.8323 39.6387 68.2366C39.646 68.121 39.6264 68.0003 39.6165 67.865C39.0954 67.7887 38.5989 67.7271 38.1048 67.641C36.9225 67.4367 35.7967 67.065 34.7324 66.5038C34.489 66.3758 34.3145 66.233 34.2825 65.9278C34.2678 65.785 34.1179 65.657 33.9851 65.4577C34.0687 65.3838 34.1941 65.2287 34.3538 65.1401C35.5657 64.4608 36.7849 63.7912 38.0016 63.1242C38.1859 63.0233 38.385 62.947 38.6136 62.8411C38.5424 62.5679 38.4785 62.3119 38.4023 62.0165C38.8717 61.7679 38.8398 61.2486 38.8914 60.7981C38.9602 60.2074 39.1716 59.6831 39.4273 59.1637C39.5747 58.8609 39.8402 58.6911 40.0442 58.5606C40.0639 58.4228 40.0492 58.2923 40.0885 58.2726C40.2827 58.1791 40.4547 58.0634 40.6317 57.9428C40.7792 57.8419 41.0103 57.8444 41.1528 57.6647C41.1872 57.6204 41.3249 57.6474 41.4109 57.6622C41.492 57.6745 41.5682 57.7164 41.6543 57.7484C41.6985 57.3471 41.6985 57.3471 42.0869 57.3841C42.0992 57.421 42.1336 57.4677 42.1262 57.5047C42.1016 57.6327 42.0746 57.7828 42.2442 57.7853C42.3278 57.7853 42.4163 57.6474 42.49 57.5613C42.5269 57.5194 42.5613 57.4407 42.5465 57.3964C42.431 57.0272 42.7088 57.0985 42.9202 57.0419C42.962 57.1847 43.0013 57.3078 43.0406 57.4431C43.0799 57.4505 43.1266 57.4727 43.166 57.4628C43.4093 57.4111 43.5224 57.2167 43.5642 57.0075C43.6133 56.7613 43.7756 56.7465 43.9919 56.7096C44.0755 56.9656 44.1566 57.2068 44.2352 57.4481C44.7195 57.3348 44.8301 57.1404 44.6629 56.6358C44.8104 56.5964 44.9554 56.557 45.1226 56.5127C45.216 56.8967 45.2283 57.2758 45.6535 57.4259C45.8895 57.1551 46.1968 56.9188 46.0984 56.4659C46.0861 56.4044 46.1894 56.2838 46.2656 56.2493C46.3197 56.2247 46.4499 56.2739 46.4917 56.3306C46.5507 56.4093 46.5679 56.525 46.59 56.6284C46.654 56.9115 46.7572 57.0247 46.9489 57.0099C47.2611 56.9853 47.4848 56.813 47.5094 56.5718C47.5192 56.4807 47.5266 56.3822 47.4946 56.2986C47.416 56.0893 47.529 56.0032 47.6986 55.9909C47.8609 55.9786 47.9592 56.1041 47.9444 56.2543C47.9076 56.6333 48.1607 56.8228 48.4311 57.0862C48.6524 56.7613 49.1096 56.621 48.9375 56.0992C48.9154 56.0303 49.0014 55.8678 49.0751 55.8358C49.198 55.7816 49.3504 55.7989 49.5569 55.7816C49.3824 56.301 49.5348 56.6333 50.0043 56.8548C50.2132 56.5742 50.432 56.2887 50.636 55.9933C50.668 55.949 50.6041 55.8481 50.6163 55.7792C50.6458 55.6118 50.7417 55.5035 50.931 55.5158C51.0932 55.5257 51.1866 55.5995 51.1743 55.7767C51.1473 56.2198 51.4939 56.3896 51.8159 56.6555C52.1035 56.2887 52.5607 56.0672 52.5287 55.501C52.5263 55.442 52.659 55.3435 52.7475 55.3164C52.895 55.2697 52.9859 55.3829 53.0007 55.5109C53.0474 55.922 53.3473 56.1583 53.6004 56.4955C53.7479 56.3059 53.8536 56.141 53.9863 56.0056C54.124 55.8653 54.2985 55.7595 54.4337 55.6167C54.4927 55.5527 54.5075 55.4346 54.5148 55.3386C54.5345 55.0949 54.6476 54.9669 54.8688 54.9694C55.0753 54.9718 55.1711 55.0777 55.1244 55.3435C55.0826 55.57 55.181 55.6758 55.3432 55.789C55.4636 55.8727 55.562 55.981 55.6972 56.1041C55.9626 56.1016 56.1961 55.9786 56.3559 55.6955C56.4297 55.5675 56.5624 55.4764 56.6779 55.3607C56.6927 55.218 56.5255 55.0604 56.7123 54.9078C56.9065 54.7503 57.0835 54.7626 57.1622 55.0038C57.2875 55.3878 57.4817 55.7152 57.7963 55.9736C58.0938 56.2198 58.4059 56.1459 58.5411 55.794C58.5829 55.6881 58.6517 55.5823 58.7329 55.5035C58.8975 55.341 59.0032 55.1761 58.9639 54.9251C58.9246 54.674 59.0155 54.5706 59.2392 54.5681C59.4432 54.5657 59.5538 54.6469 59.5145 54.8783C59.4924 55.0038 59.5096 55.1343 59.5096 55.3041C59.8734 55.4641 60.0381 56.0303 60.6059 55.949C60.8714 55.6438 61.1491 55.341 61.4048 55.0211C61.4662 54.9448 61.4539 54.802 61.4564 54.6888C61.4638 54.4968 61.5572 54.4155 61.7464 54.418C61.9283 54.4205 62.0906 54.4451 62.1029 54.6765C62.1102 54.8118 62.1029 54.9497 62.1029 55.1146C62.1864 55.1811 62.3364 55.2426 62.3905 55.3534C62.6289 55.8407 63.0443 55.693 63.4204 55.6635C63.6097 55.6487 63.735 55.5404 63.8161 55.3386C63.8825 55.1737 64.0447 55.0457 64.207 54.8537C64.207 54.8315 64.2168 54.7257 64.2045 54.6223C64.1799 54.3835 64.2758 54.2383 64.4847 54.2162C64.6863 54.1965 64.7748 54.2998 64.7797 54.5706C64.7821 54.6912 64.7797 54.8118 64.7797 54.9521C64.8313 54.9964 64.9198 55.0432 64.9665 55.1171C65.2418 55.5478 65.6769 55.5035 66.0972 55.5281C66.2791 55.538 66.375 55.4666 66.4462 55.3041C66.4979 55.1835 66.5667 55.026 66.6699 54.9792C66.9403 54.8537 67.0116 54.6469 66.9895 54.3885C66.9747 54.2088 67.0141 54.0709 67.2082 54.0635C67.3779 54.0562 67.4467 54.1915 67.4516 54.3392C67.4663 54.7971 67.8277 55.0604 68.0514 55.4887C68.2677 55.1983 68.4471 54.9571 68.6487 54.6888C68.6192 54.6617 68.5479 54.5977 68.4496 54.5091C68.5921 54.3392 68.7347 54.1694 68.9289 53.9405C69.0567 54.1546 69.1452 54.3072 69.2386 54.4574C69.3197 54.5903 69.3271 54.8438 69.5582 54.7601C69.7425 54.6937 69.804 54.4943 69.7892 54.2826C69.7671 53.9676 69.8433 53.9085 70.2562 53.9011C70.2907 54.1448 70.3251 54.3909 70.3668 54.6912C70.4701 54.7749 70.6225 54.8955 70.8093 55.0432C71.0821 54.5485 71.3034 54.0709 71.3796 53.5639C71.4312 53.2143 71.4951 52.8599 71.5221 52.5005C71.5566 52.0648 71.3575 51.8113 71.1461 51.5233C71.0772 51.4298 70.9838 51.3535 70.8978 51.2649C71.0699 50.9572 71.3058 50.7775 71.5959 50.6593C71.8368 50.5609 72.0777 50.4649 72.3087 50.3492C72.4587 50.2729 72.5693 50.1621 72.5914 49.9652C72.7315 48.7049 72.8839 47.4471 73.0314 46.1893C73.0363 46.145 73.0314 46.0983 73.0314 46.017C72.9331 45.9456 72.8151 45.8595 72.6455 45.734C73.1248 45.5567 73.0756 45.1432 73.1764 44.7937C73.5353 43.563 73.9089 42.3347 74.2727 41.104C74.3587 40.8135 74.4349 40.5206 74.521 40.2006C74.312 40.1735 74.14 40.1489 73.9384 40.1218C74.0171 39.7255 74.3686 39.888 74.6168 39.7231C75.1896 36.9589 75.9565 34.1872 76.9569 31.4944C77.9573 28.804 79.093 26.1629 80.177 23.4774C80.0737 23.4282 79.9828 23.374 79.8845 23.3396C79.41 23.1673 79.2478 22.9605 79.2724 22.4707C79.2896 22.1212 79.3486 21.7716 79.3953 21.4246C79.4248 21.1932 79.6165 21.1587 79.796 21.1095C80.2876 20.9741 80.2851 20.9741 80.2802 20.4646C80.2777 19.9428 80.2777 19.4234 80.2777 18.9016C80.2777 18.6136 80.29 18.3379 80.0983 18.0721C79.9164 17.8185 79.9852 17.501 80.1253 17.2401C80.2728 16.9644 80.2728 16.6887 80.2482 16.3958C80.2237 16.0906 80.2212 15.7854 80.2138 15.4777C80.2089 15.1897 80.1917 14.914 80.0885 14.626C80.0098 14.4045 80.0811 14.1239 80.1081 13.8703C80.1253 13.7079 80.2138 13.5479 80.2188 13.3879C80.2286 12.7898 80.2261 12.1941 80.2089 11.5959C80.204 11.4556 80.1622 11.2932 80.0811 11.1824C79.9017 10.9387 79.8845 10.6951 80.0418 10.4588C80.1696 10.2643 80.1868 10.0649 80.1868 9.84831C80.1893 9.42001 80.1991 8.99172 80.2089 8.56343C80.2163 8.27297 80.2212 8.00221 80.0074 7.74622C79.8304 7.53454 79.8427 7.24408 80.0172 7.01763C80.1622 6.83056 80.1893 6.63856 80.1868 6.41949C80.1819 5.75982 80.1942 5.10261 80.1794 4.44294C80.1745 4.27064 80.1278 4.08357 80.0467 3.93095C79.9041 3.66266 79.9115 3.41651 80.0123 3.13836C80.0885 2.92914 80.1376 2.70022 80.1475 2.47869C80.1745 1.77471 80.1745 1.07074 80.1868 0.366758C80.1893 0.263376 80.2015 0.162456 80.2138 0C80.9095 0.0246146 81.5781 0.031999 82.2442 0.0738439C83.3307 0.142765 84.3999 0.30276 85.4323 0.667056C85.9264 0.84182 86.3934 1.06827 86.7965 1.40303C87.2218 1.75748 87.5044 2.19562 87.561 2.76422C87.6691 3.88173 88.2369 4.52663 89.3406 4.73339C90.1493 4.886 90.9654 5.01892 91.7815 5.11246C92.836 5.23061 93.8831 5.1863 94.9106 4.84662C93.8929 5.62444 92.777 6.14627 91.4668 6.2275C92.0027 6.57949 92.6074 6.67548 93.2243 6.62133C93.8241 6.56718 94.4165 6.43426 95.0335 6.36288C94.7065 6.52041 94.3845 6.69025 94.0502 6.83302C92.5484 7.47546 90.9728 7.72161 89.348 7.62561C88.35 7.56653 87.4922 7.15793 86.7572 6.4638C86.6662 6.51057 86.5753 6.55487 86.4868 6.59918C86.5065 6.65087 86.5089 6.68533 86.5286 6.7001C87.2783 7.30562 87.2685 7.64284 86.4671 8.22867C86.6048 8.39359 86.7449 8.5585 86.8998 8.74311C86.7596 8.85388 86.6564 8.93511 86.5261 9.03849C86.8039 9.29694 87.1308 9.52586 87.1603 9.94184C87.1898 10.3849 86.8481 10.572 86.5138 10.8058C86.6859 10.8994 86.8432 10.9683 86.9858 11.0618C87.2168 11.2144 87.2218 11.3596 87.0079 11.5319C86.9489 11.5787 86.8801 11.6132 86.8137 11.6501C86.7474 11.6846 86.681 11.7141 86.5483 11.7781C86.6761 11.847 86.7621 11.8889 86.8432 11.9381C87.0005 12.0316 87.1701 12.1104 87.3078 12.2285C87.733 12.583 87.7773 13.0187 87.3963 13.4224C87.1701 13.6636 86.8801 13.8482 86.59 14.082C86.6785 14.1559 86.7793 14.2346 86.8727 14.3159C87.1628 14.5694 87.1579 14.6875 86.8481 14.9115C86.799 14.946 86.7474 14.9805 86.6859 15.0223C86.8629 15.1577 87.0349 15.2783 87.1972 15.4112C87.3889 15.5687 87.5413 15.741 87.5364 16.0266C87.5339 16.162 87.647 16.3023 87.7109 16.4376C87.8461 16.7256 87.9395 17.0112 87.6372 17.2868C87.9002 17.4444 88.1386 17.5748 88.3648 17.7225C88.8465 18.0351 89.2472 18.4216 89.5151 18.9434C89.7241 19.352 89.7241 19.7852 89.4733 20.12C89.2079 20.472 89.2964 20.792 89.3406 21.1809C89.7364 21.2818 90.1296 21.4049 90.5303 21.4787C90.8081 21.5304 90.9433 21.6658 91.044 21.9218C92.7696 26.3032 94.4927 30.6846 95.8692 35.194C95.8913 35.2654 95.9208 35.3343 95.9552 35.4278C96.2453 35.3318 96.5501 35.3023 96.7566 35.0414C96.7984 34.9897 96.8746 34.9454 96.9409 34.9355C97.2998 34.8838 97.6366 34.8297 97.9414 34.5688C98.1159 34.4186 98.4281 34.4285 98.6788 34.362C98.782 34.3349 98.8828 34.3005 99.0082 34.2611C99.077 33.7959 98.8582 33.4562 98.4551 33.1288C98.6665 32.9541 98.8336 32.7694 99.0426 32.6562C99.2417 32.5479 99.4826 32.5159 99.7677 32.4322C99.7824 32.4125 99.8414 32.3288 99.9053 32.2378C100.048 32.3018 100.171 32.3584 100.296 32.415C100.367 32.2944 100.414 32.1073 100.5 32.0852C101.115 31.9399 101.385 31.3098 101.948 31.0883C102.081 31.0366 102.169 30.815 102.228 30.6526C102.287 30.4877 102.152 30.4532 101.997 30.4458C101.987 30.5886 101.98 30.719 101.97 30.8815C101.776 30.8446 101.535 30.9898 101.555 30.6206C101.557 30.5615 101.358 30.4631 101.238 30.4286C100.658 30.2686 100.658 30.2735 100.687 29.6803C100.694 29.5129 100.697 29.3431 100.697 29.1757C100.699 29.0108 100.697 28.8434 100.697 28.6563C100.921 28.58 101.12 28.5136 101.331 28.4397C101.331 22.4264 101.331 16.4155 101.331 10.4021C101.395 10.3824 101.437 10.3578 101.479 10.3554C103.15 10.3332 104.814 10.4292 106.412 10.9609C106.911 11.1283 107.393 11.3892 107.835 11.6796C108.339 12.0095 108.622 12.4968 108.698 13.1245C108.838 14.306 109.443 14.9214 110.583 15.0961C111.412 15.2241 112.242 15.3571 113.076 15.4506C114.042 15.5614 114.998 15.5072 115.927 15.1872C115.952 15.1774 115.986 15.1921 116.015 15.1946C115.44 15.805 114.278 16.2776 112.52 16.5878C113.766 17.1761 114.934 16.9718 116.119 16.6863C116.038 16.7404 115.964 16.8044 115.878 16.8487C114.076 17.7791 112.159 18.1582 110.153 17.9121C108.813 17.7471 107.793 17.0333 107.211 15.7755C106.935 15.1798 106.459 14.8278 105.874 14.5915C105.136 14.2937 104.362 14.2149 103.58 14.2272C103.003 14.2371 102.425 14.2937 101.86 14.3282C101.759 14.6875 101.724 27.6176 101.815 28.324C102.078 28.4151 102.263 28.3437 102.405 28.0853C102.597 27.7407 102.784 27.3788 103.172 27.1992C103.307 27.1352 103.45 27.0835 103.585 27.0195C103.678 26.9752 103.794 26.9456 103.853 26.8718C104.099 26.5641 104.436 26.4484 104.802 26.3696C105.062 26.3155 105.345 26.3081 105.591 26.0964C105.446 25.9684 105.318 25.865 105.202 25.7543C104.762 25.3309 104.767 24.8952 105.222 24.4965C105.325 24.4079 105.443 24.3365 105.559 24.2626C105.608 24.2306 105.709 24.2134 105.714 24.1789C105.76 23.822 106.082 23.7211 106.35 23.5193C106.203 23.4011 106.075 23.3027 105.955 23.1968C105.451 22.7488 105.463 22.3082 105.996 21.9095C106.082 21.8455 106.176 21.7938 106.193 21.7839C106.269 21.4935 106.328 21.2744 106.392 21.0283C105.92 20.5803 105.913 20.4646 106.341 19.9625C106.358 19.6892 106.372 19.4406 106.395 19.1009C106.377 19.0493 106.272 18.8917 106.289 18.7514C106.309 18.6062 106.449 18.4757 106.549 18.3157C106.318 18.0917 106.353 17.8259 106.476 17.5379C106.581 17.2893 106.665 17.0309 106.766 16.7601C107.442 17.5478 107.582 17.9268 107.351 18.3354C107.513 18.6333 107.764 18.9336 107.417 19.2757C107.493 19.5219 107.316 19.8074 107.535 20.0314C107.567 20.0634 107.597 20.1003 107.624 20.1372C107.928 20.5483 107.904 20.7624 107.515 21.1046C107.557 21.3187 107.599 21.5279 107.648 21.779C108.388 22.3181 108.604 22.8571 107.513 23.6719C107.806 23.8122 108.105 23.9303 108.191 24.2823C108.211 24.3586 108.359 24.4029 108.447 24.462C108.484 24.4866 108.523 24.5137 108.558 24.5432C109.185 25.0208 109.172 25.4811 108.506 25.8503C108.452 25.8798 108.4 25.9118 108.329 25.9537C108.329 26.0767 108.329 26.2096 108.329 26.3549C108.381 26.3844 108.43 26.4189 108.486 26.441C108.968 26.6355 109.452 26.8225 109.929 27.0219C110.084 27.0859 110.232 27.1696 110.372 27.2607C111.345 27.8834 111.419 28.1714 111.318 29.4268C111.289 29.8009 111.043 30.0643 110.694 30.2169C110.31 30.3843 110.31 30.3843 110.328 30.8446C110.421 30.8864 110.529 30.9332 110.637 30.9824C111.112 31.1916 111.596 31.3861 112.06 31.6126C112.304 31.7332 112.515 31.9153 112.746 32.0655C112.911 32.1713 113.073 32.2796 113.25 32.3608C113.651 32.5479 114.069 32.7005 114.46 32.9024C114.683 33.018 114.872 33.2051 115.094 33.3725C114.959 33.7639 114.833 34.1208 114.688 34.5368C115.217 34.7878 115.725 35.0611 116.256 35.2801C117.539 35.8118 118.84 36.3041 120.12 36.8407C121.871 37.5767 123.38 38.7016 124.852 39.8757C125.508 40.4 126.167 40.9243 126.779 41.5002C127.323 42.0122 127.844 42.5587 128.303 43.147C129.122 44.1956 129.908 45.2687 130.67 46.3592C131.718 47.8533 132.649 49.4089 133.084 51.2156C133.234 51.8359 133.448 52.4414 133.654 53.1257C133.893 53.271 134.126 53.5048 134.303 53.8592C134.471 54.1915 134.711 54.5829 135.176 54.6568C135.265 54.6715 135.348 54.7208 135.432 54.7577C135.877 54.9595 135.955 55.058 136.071 55.6167C136.162 55.4174 136.226 55.2894 136.275 55.1589C136.329 55.0186 136.366 54.8709 136.408 54.738C136.867 54.6666 136.852 54.674 136.931 55.0629C136.97 55.2598 137.086 55.4469 137.189 55.6241C137.27 55.7693 137.386 55.8949 137.494 56.045C137.322 56.3035 137.354 56.525 137.651 56.6973C137.705 56.653 137.804 56.6112 137.811 56.557C137.848 56.2149 138.084 56.205 138.342 56.2001C138.539 56.1952 138.733 56.1632 138.912 56.1435C139.136 55.7546 139.522 55.4764 139.389 54.9891C139.8 54.9497 139.854 54.9718 139.871 55.2475C139.883 55.4715 139.935 55.6389 140.119 55.8013C140.333 55.9884 140.505 56.2272 140.456 56.5644C140.441 56.6702 140.476 56.8401 140.689 56.9041C140.704 56.8228 140.716 56.7662 140.721 56.7072C140.748 56.4389 140.957 56.3995 141.154 56.3995C141.567 56.3995 141.83 56.1681 142.059 55.8653C142.206 55.6709 142.206 55.6709 142.105 55.378C142.427 55.0998 142.548 55.1318 142.641 55.5084C142.685 55.6955 142.754 55.8555 142.899 56.013C143.071 56.2026 143.216 56.461 143.172 56.7638C143.16 56.8499 143.209 56.9435 143.258 57.1576C143.462 56.7416 143.745 56.6949 144.05 56.6555C144.386 56.6112 144.711 56.2469 144.765 55.9121C144.782 55.8063 144.77 55.6881 144.814 55.5995C144.856 55.5183 144.952 55.4174 145.03 55.4124C145.112 55.4075 145.217 55.4937 145.279 55.5675C145.333 55.6315 145.365 55.7324 145.367 55.8161C145.375 56.1336 145.591 56.2912 145.829 56.4413C145.851 56.6702 145.874 56.8918 145.901 57.1798C145.996 57.1404 146.134 57.1231 146.149 57.0739C146.223 56.7982 146.434 56.7785 146.65 56.7736C146.921 56.7687 147.125 56.6579 147.255 56.429C147.311 56.3306 147.368 56.2099 147.363 56.1016C147.346 55.6561 147.417 55.5749 147.86 55.6044C147.901 55.6069 147.943 55.634 148.007 55.661C148.012 55.7447 148.01 55.8333 148.024 55.9195C148.064 56.1509 148.103 56.3626 148.292 56.557C148.474 56.7441 148.71 56.9853 148.509 57.3225C148.486 57.357 148.548 57.4924 148.595 57.5071C148.666 57.5293 148.784 57.517 148.833 57.4702C148.917 57.389 148.958 57.2684 149.02 57.1625C149.578 57.0198 149.964 56.5989 149.991 56.045C150.148 56.0179 150.315 55.9909 150.534 55.954C150.568 56.1878 150.561 56.3896 150.635 56.557C150.718 56.7515 150.846 56.9459 151.003 57.0838C151.183 57.2438 151.328 57.5268 151.652 57.4161C151.977 57.3053 151.933 57.0099 151.96 56.7662C152.328 53.5343 152.813 50.3197 153.398 47.1173C153.729 45.3081 154.263 43.5531 154.779 41.7956C155.312 39.9791 155.956 38.192 156.6 36.4099C156.989 35.3343 157.48 34.2931 157.911 33.2297C158.134 32.6784 158.326 32.1172 158.53 31.5584C158.643 31.2433 158.82 31.007 159.149 30.8717C159.467 30.7412 159.656 30.4975 159.612 30.1135C159.594 29.9708 159.651 29.8206 159.673 29.6902C159.936 29.6015 160.162 29.5277 160.41 29.444C160.369 29.2988 160.347 29.1954 160.31 29.0969C159.98 28.2527 160.305 27.1647 161.094 26.6946C161.423 26.4976 161.509 26.281 161.507 25.9266C161.497 20.2751 161.499 14.6235 161.499 8.97203C161.499 8.78988 161.499 8.60773 161.499 8.40097C161.593 8.38374 161.664 8.35666 161.733 8.36159C162.583 8.42066 163.439 8.46004 164.287 8.54866C165.322 8.65942 166.347 8.83419 167.295 9.28956C167.61 9.43971 167.912 9.62924 168.185 9.84585C168.65 10.2101 168.903 10.6926 168.955 11.2981C169.033 12.231 169.613 12.935 170.516 13.1097C171.504 13.3017 172.504 13.4371 173.505 13.5503C174.439 13.6562 175.363 13.5528 176.272 13.2304C175.786 13.8556 174.343 14.4463 172.87 14.6383C173.421 15.1183 174.308 15.1429 176.398 14.7712C176.189 14.8845 175.987 15.01 175.771 15.1085C174.141 15.8543 172.428 16.1989 170.641 16.029C169.193 15.8912 168.067 15.2118 167.441 13.8383C167.212 13.3387 166.824 13.0137 166.347 12.7725C165.818 12.5067 165.25 12.3984 164.67 12.3418C163.785 12.2556 162.908 12.3172 162.001 12.4427C162.001 16.8758 162.001 21.2793 162.001 25.7444C162.409 25.5869 162.657 25.2571 163.016 24.9961C162.841 24.8115 162.687 24.6491 162.534 24.4866C162.138 24.0657 162.121 23.6177 162.522 23.2042C162.731 22.9876 162.984 22.8128 163.222 22.6208C163.473 22.4215 163.726 22.227 164.012 22.0055C163.756 21.8307 163.525 21.6929 163.318 21.5255C162.748 21.0627 162.787 20.1397 163.395 19.7089C163.554 19.5957 163.736 19.512 163.896 19.4234C163.805 19.2314 163.64 19.0419 163.65 18.8646C163.658 18.7046 163.859 18.5545 163.994 18.3748C163.815 18.1336 163.441 17.9638 163.446 17.5625C163.451 17.1441 163.825 17.0013 164.068 16.765C163.717 16.2506 163.756 16.4303 164.127 15.97C164.024 15.8469 163.918 15.7214 163.793 15.5712C164.021 14.9115 164.248 14.2543 164.513 13.4863C164.668 13.6808 164.776 13.7768 164.835 13.8999C164.97 14.1731 165.081 14.4611 165.206 14.7392C165.371 15.0986 165.491 15.4555 165.191 15.8198C165.307 15.9626 165.447 16.0758 165.504 16.221C165.555 16.3564 165.513 16.5287 165.513 16.7379C165.575 16.7921 165.693 16.8881 165.799 16.9989C166.116 17.3287 166.111 17.5871 165.796 17.9096C165.693 18.0154 165.599 18.1262 165.479 18.2616C165.934 18.616 165.843 18.9828 165.533 19.3545C165.747 19.4972 165.946 19.6129 166.123 19.7532C166.634 20.1569 166.706 20.6369 166.31 21.1513C166.116 21.4024 165.865 21.6092 165.602 21.875C165.973 22.1778 166.177 22.6233 166.62 22.8399C166.728 22.8941 166.824 22.9753 166.914 23.0541C167.433 23.502 167.482 24.0633 167.052 24.59C166.966 24.6958 166.868 24.7894 166.757 24.91C167.005 25.2398 167.298 25.4983 167.63 25.7124C167.925 25.902 167.93 25.8946 167.91 26.1653C168.352 26.5518 168.81 26.8718 169.166 27.2804C169.825 28.0361 169.766 28.804 169.07 29.5277C168.923 29.6803 168.76 29.8206 168.561 30.0077C169.318 30.4434 170.085 30.783 170.958 31.0243C171.113 31.4206 171.287 31.8587 171.457 32.2993C171.99 33.6999 172.563 35.0857 173.047 36.5035C173.748 38.5588 174.453 40.6166 175.029 42.7064C175.567 44.6608 175.94 46.6619 176.38 48.6434C176.518 49.2686 176.661 49.8963 176.759 50.5314C176.892 51.3904 176.995 52.2544 177.096 53.1183C177.265 54.5903 177.445 56.0598 177.578 57.5367C177.659 58.4326 177.627 59.3409 177.696 60.2394C177.853 62.2479 177.963 64.2614 178.349 66.2478C178.45 66.7672 178.406 67.3136 178.421 67.8502C178.43 68.217 178.423 68.5812 178.423 68.9579C178.607 69.0292 178.745 69.0834 178.898 69.1425C178.905 69.1548 178.937 69.1818 178.932 69.204C178.836 69.7504 179.079 70.2452 179.17 70.7621C179.279 71.3775 179.399 71.9928 179.478 72.6131C179.507 72.8494 179.441 73.0956 179.419 73.3466C179.593 73.4451 179.773 73.5436 179.972 73.6543C179.9 73.8291 179.844 73.9669 179.782 74.1171C179.883 74.2795 180.09 74.4272 179.898 74.6709C179.866 74.7103 179.918 74.8531 179.969 74.9146C180.097 75.0647 180.242 75.2001 180.387 75.3306C180.53 75.461 180.68 75.5817 180.83 75.7072C180.712 75.9558 180.613 76.1576 180.5 76.3964C180.726 76.4629 180.923 76.5195 181.137 76.5835C181.188 76.7607 181.412 76.9133 181.215 77.1471C181.191 77.1767 181.252 77.285 181.282 77.3514C181.375 77.5607 181.474 77.7674 181.596 78.0333C181.707 77.8683 181.803 77.7379 181.889 77.6025C182.764 76.2364 183.669 74.89 184.745 73.674C185.097 73.2753 185.515 72.9356 185.908 72.5713C186.345 72.1676 186.781 71.759 187.233 71.3701C189.32 69.5708 191.611 68.0963 194.174 67.0625C194.246 67.033 194.312 66.9985 194.405 66.9542C194.297 66.841 194.196 66.7327 194.051 66.5801C195.263 66.2995 196.46 66.2379 197.569 65.7776C197.483 65.566 197.399 65.401 197.35 65.2263C197.276 64.9629 197.328 64.8595 197.586 64.7734C197.891 64.6749 198.201 64.5838 198.513 64.5272C198.901 64.4583 199.221 64.2885 199.53 64.0448C200.079 63.6091 200.575 63.0947 201.261 62.8608C201.315 62.8436 201.404 62.7993 201.404 62.7673C201.411 62.3685 201.762 62.4104 201.991 62.3045C202.114 62.2479 202.252 62.2258 202.424 62.1765C202.372 61.9082 202.32 61.6498 202.261 61.347C201.504 61.3913 200.777 61.4701 200.052 61.4652C199.339 61.4602 198.626 61.3667 197.884 61.3076C197.884 60.9384 197.876 60.6184 197.886 60.2984C197.896 59.9784 197.938 59.656 197.935 59.336C197.933 59.1095 198.026 58.9914 198.235 58.952C198.55 58.8929 198.864 58.8388 199.218 58.7773C199.218 51.7892 199.218 44.7961 199.218 37.7908C199.304 37.7637 199.358 37.7318 199.412 37.7318C200.801 37.7711 202.195 37.7982 203.554 38.133C204.071 38.261 204.577 38.4431 205.073 38.6376C205.518 38.8123 205.902 39.0979 206.214 39.4671C206.477 39.7772 206.632 40.1292 206.669 40.5452C206.765 41.6061 207.347 42.2781 208.387 42.4627C209.468 42.6547 210.545 42.8934 211.651 42.9082C212.401 42.9181 213.141 42.8467 213.9 42.5931C213.473 43.2036 211.966 43.8042 210.493 43.9592C211.078 44.3211 211.656 44.4072 212.239 44.3679C212.811 44.3309 213.382 44.2103 213.991 44.1217C213.91 44.1857 213.856 44.2448 213.79 44.2768C212.071 45.1531 210.245 45.5297 208.333 45.35C206.883 45.2121 205.771 44.5057 205.145 43.1347C204.911 42.6251 204.496 42.2978 203.994 42.0639C203.372 41.7735 202.709 41.6529 202.038 41.6381C201.337 41.6233 200.634 41.6947 199.934 41.7341C199.862 41.739 199.791 41.7809 199.685 41.8202C199.685 41.9852 199.685 42.1501 199.685 42.3175C199.685 47.617 199.685 52.9165 199.685 58.2136C199.685 58.2899 199.683 58.3662 199.685 58.4425C199.7 58.7502 199.734 58.7871 200.025 58.8043C200.236 58.8166 200.447 58.824 200.678 58.8339C200.885 58.1053 201.426 57.768 202.111 57.645C202.416 57.5908 202.453 57.3201 202.618 57.1527C202.674 57.0936 202.709 57.0025 202.778 56.9681C203.018 56.8376 203.272 56.7293 203.517 56.6087C204.012 56.365 204.179 55.9761 204.09 55.4494C204.036 55.1244 203.889 54.8955 203.572 54.7429C203.616 54.6321 203.626 54.4968 203.694 54.4525C203.965 54.2777 203.992 53.8863 204.402 53.8026C204.727 53.7362 204.734 53.1897 204.474 52.9264C204.346 52.7959 204.213 52.6654 204.11 52.5153C203.608 51.7867 203.916 50.9744 204.781 50.7209C204.823 50.7086 204.867 50.6987 204.978 50.6741C204.906 50.5215 204.842 50.3886 204.769 50.2335C204.894 50.1498 205.032 50.0588 205.191 49.9529C205.201 49.8028 205.196 49.6723 205.037 49.5418C204.488 49.0889 204.508 48.7246 205.071 48.3013C205.155 48.2373 205.231 48.161 205.297 48.1019C205.226 47.932 205.093 47.7671 205.115 47.6268C205.135 47.4939 205.317 47.3831 205.427 47.265C204.83 46.7432 205.054 46.6644 205.272 46.1352C205.425 45.7684 205.607 45.4164 205.776 45.0571C205.826 44.9512 205.88 44.8454 205.958 44.6805C206.032 44.8257 206.079 44.9118 206.121 45.0004C206.258 45.2909 206.393 45.5789 206.529 45.8693C206.592 46.0072 206.666 46.1426 206.72 46.2853C206.922 46.8047 206.9 46.8687 206.386 47.2059C206.519 47.3438 206.639 47.4718 206.789 47.6293C206.728 47.7327 206.661 47.8434 206.588 47.969C206.602 47.996 206.617 48.0404 206.644 48.0724C206.777 48.2176 206.937 48.3456 207.045 48.508C207.325 48.9265 207.251 49.2415 206.831 49.5172C206.742 49.5738 206.644 49.6157 206.502 49.6895C206.548 49.7855 206.58 49.8988 206.649 49.9775C206.934 50.3024 206.939 50.3221 206.617 50.6323C206.664 50.6864 206.701 50.7603 206.76 50.7947C207.153 51.0187 207.377 51.3855 207.541 51.7818C207.75 52.2888 207.581 52.6777 207.087 52.9165C206.949 52.983 206.801 53.0248 206.659 53.079C206.536 53.1257 206.415 53.1725 206.204 53.2513C206.691 53.5146 206.863 54.0143 207.362 54.1472C207.544 54.1965 207.539 54.258 207.622 54.6248C207.18 54.6617 207.153 55.0112 207.123 55.341C207.089 55.7152 207.037 56.1016 207.364 56.3995C207.409 56.4389 207.433 56.5078 207.482 56.5299C207.772 56.6604 208.057 56.8327 208.365 56.8942C208.687 56.9607 208.812 57.1108 208.807 57.4161C208.807 57.4604 208.824 57.5047 208.842 57.5908C209.016 57.6302 209.205 57.677 209.397 57.7114C210.085 57.8296 210.55 58.4302 210.592 58.8388C210.661 59.5034 210.528 60.1015 209.891 60.456C209.643 60.5938 209.5 60.7907 209.419 61.0443C209.299 61.4209 209.191 61.8024 209.25 62.2405C209.412 62.275 209.572 62.307 209.763 62.3464C209.766 62.5408 209.884 62.6294 210.085 62.6836C210.629 62.8362 211.051 63.203 211.457 63.5722C211.944 64.0128 212.484 64.3328 213.131 64.4731C213.296 64.5075 213.458 64.5543 213.613 64.6183C213.996 64.7808 214.05 64.9629 213.839 65.3346C213.772 65.4503 213.704 65.5635 213.615 65.7112C213.738 65.7456 213.819 65.7727 213.905 65.7949C214.557 65.9598 215.203 66.1321 215.857 66.2822C216.147 66.3487 216.447 66.3733 216.774 66.4226C216.752 66.4915 216.722 66.5825 216.69 66.6859C216.793 66.7105 216.894 66.7352 217.01 66.7622C217.029 66.8656 217.047 66.9665 217.066 67.0675C220.154 68.2366 222.774 70.1049 225.229 72.3817C225.286 72.1184 225.35 71.9215 225.37 71.7221C225.492 70.4397 225.822 69.1966 226.139 67.9536C226.159 67.8797 226.215 67.7936 226.193 67.737C226.028 67.3259 226.252 67.0724 226.522 66.8164C226.601 66.7425 226.638 66.6047 226.658 66.489C226.94 64.8324 227.216 63.1759 227.496 61.5193C227.774 59.8775 228.039 58.2333 228.457 56.621C228.786 55.3509 229.192 54.098 229.551 52.8353C230.106 50.8784 230.809 48.9708 231.507 47.0632C231.584 46.8564 231.719 46.6398 231.458 46.4404C231.815 46.1696 231.689 45.5543 232.255 45.5026C232.284 45.254 232.242 44.9857 232.353 44.8183C232.461 44.6558 232.724 44.5992 232.943 44.4835C232.901 44.3925 232.857 44.2989 232.815 44.2054C232.523 43.5457 232.645 42.9993 233.199 42.5193C233.371 42.3691 233.535 42.2042 233.722 42.0738C233.953 41.9162 234.007 41.7144 234.007 41.4486C233.997 39.5483 234.002 37.6505 234.002 35.7503C234.002 33.2396 234.002 30.7264 234.002 28.2157C234.002 28.0484 234.002 27.8834 234.002 27.657C234.319 27.657 234.605 27.6496 234.89 27.6594C236.251 27.7062 237.603 27.8096 238.918 28.2059C239.523 28.388 240.101 28.6293 240.595 29.0305C241.035 29.3899 241.32 29.828 241.391 30.4212C241.544 31.6987 242.229 32.3067 243.537 32.4421C244.159 32.5061 244.769 32.6661 245.39 32.7374C246.428 32.8581 247.465 32.8704 248.478 32.5479C248.532 32.5307 248.596 32.5331 248.665 32.5578C247.681 33.3159 246.583 33.7786 245.329 33.8845C245.838 34.2488 246.42 34.3029 247.003 34.2635C247.576 34.2242 248.146 34.1134 248.746 34.0322C248.665 34.0888 248.598 34.1528 248.52 34.1922C247.165 34.8863 245.725 35.2481 244.206 35.2826C243.916 35.29 243.623 35.2974 243.333 35.2801C241.78 35.1866 240.587 34.5195 239.899 33.0747C239.612 32.4691 239.115 32.1098 238.51 31.8833C237.697 31.5781 236.844 31.5067 235.983 31.5362C235.497 31.5535 235.013 31.6175 234.499 31.6618C234.499 34.4408 234.499 37.1853 234.499 39.9397C234.988 39.5311 235.462 39.1372 236.001 38.6893C235.814 38.613 235.686 38.5563 235.553 38.5047C235.253 38.3914 235.027 38.2363 235.013 37.8597C234.998 37.4758 235.049 37.1607 235.445 36.9958C235.61 36.9269 235.765 36.8333 235.981 36.7201C235.821 36.5995 235.711 36.5133 235.573 36.4099C235.664 36.245 235.757 36.0752 235.848 35.9053C235.16 35.4598 235.158 35.2211 235.794 34.7878C235.868 34.7386 235.937 34.682 236.008 34.6278C235.696 34.3226 235.696 34.3226 235.939 34.0371C235.865 33.9362 235.787 33.8279 235.698 33.7073C235.853 33.1337 235.952 32.5307 236.281 31.935C236.844 32.7793 237.043 33.6334 236.851 34.5909C236.964 34.6992 237.092 34.8125 237.205 34.9355C237.466 35.2161 237.463 35.3614 237.2 35.6395C237.117 35.7281 237.023 35.8069 236.92 35.9029C236.945 36.0949 237.333 36.2844 236.908 36.5281C237.036 36.6487 237.134 36.7742 237.259 36.8505C237.441 36.9613 237.68 37.0327 237.682 37.2838C237.684 37.5964 237.743 37.9434 237.456 38.1822C237.247 38.3545 237.023 38.5071 236.768 38.6966C236.876 38.7631 236.962 38.8123 237.043 38.8689C237.181 38.9625 237.316 39.056 237.448 39.1569C237.579 39.2554 237.704 39.3612 237.832 39.4622C237.928 39.536 238.038 39.5975 238.124 39.6812C238.375 39.9225 238.405 40.1169 238.228 40.4172C238.144 40.56 238.031 40.6855 237.923 40.8307C238.252 41.1409 238.768 41.3132 238.803 41.9113C239.208 42.0393 239.56 42.2682 239.793 42.6448C239.88 42.7827 239.934 42.9427 239.995 43.0953C240.106 43.3759 240.064 43.6245 239.857 43.8559C239.666 44.0725 239.582 44.3186 239.675 44.6189C239.72 44.7592 239.698 44.9192 239.71 45.0964C239.845 45.1334 239.975 45.1678 240.103 45.2047C240.526 45.3303 240.826 45.606 240.976 46.0146C241.549 47.5801 242.119 49.1431 242.664 50.7184C243.171 52.1781 243.525 53.682 243.825 55.1983C244.009 56.1287 244.159 57.0641 244.373 57.9871C244.535 58.6837 244.776 59.3631 244.982 60.0474C245.349 61.2633 245.688 62.4842 245.872 63.742C245.892 63.8774 245.973 64.0202 246.062 64.1285C246.231 64.3377 246.3 64.5494 246.268 64.83C246.236 65.1254 246.29 65.4306 246.31 65.7407C246.457 65.7727 246.573 65.7949 246.706 65.8244C246.765 65.9869 246.841 66.1518 246.883 66.3265C246.919 66.4718 246.986 66.6785 246.919 66.7672C246.735 67.0084 246.846 67.2274 246.895 67.4514C247.035 68.0767 247.222 68.6945 247.327 69.3271C247.448 70.0483 247.531 70.7793 247.576 71.5104C247.664 72.9159 247.713 74.3214 247.785 75.7269C247.794 75.9312 247.799 76.1182 247.971 76.3102C248.089 76.4407 248.043 76.741 248.033 76.9625C248.021 77.253 247.718 77.2013 247.529 77.3367C247.64 77.6911 247.753 78.053 247.888 78.4812C248.244 78.5452 248.706 78.5206 249.051 78.8308C249.169 78.9366 249.237 79.0991 249.353 79.2763C249.203 79.36 249.09 79.4314 248.969 79.4855C248.638 79.6357 248.608 79.7391 248.613 80.1206C248.618 80.5538 248.721 80.9599 248.869 81.3513C249.09 81.9445 249.031 82.555 249.048 83.1654C249.055 83.4312 248.972 83.7119 249.191 83.9555C249.232 84.0023 249.161 84.1795 249.107 84.2755C249.07 84.3395 248.969 84.3641 248.842 84.4429C249.183 84.5931 249.451 84.5635 249.714 84.4331C249.795 84.3937 249.864 84.2928 249.943 84.2878C250.412 84.2632 250.587 83.9383 250.781 83.574C251.054 83.0546 251.413 82.5402 252.017 82.427C252.504 82.3359 252.76 82.139 252.848 81.6664C252.873 81.5384 252.974 81.4227 253.052 81.3119C253.254 81.0215 253.514 80.8639 253.888 80.8369C254.62 80.7827 255.267 81.0461 255.921 81.3021C256.199 81.4104 256.481 81.5138 256.761 81.6172C256.779 81.5827 256.796 81.5458 256.813 81.5113C256.476 81.307 256.154 81.0658 255.798 80.9033C255.449 80.7433 255.063 80.6646 254.645 80.5341C255.107 80.3938 255.51 80.2904 255.891 80.7335C255.761 80.2978 255.663 80.2043 255.245 80.1329C255.043 80.0984 254.871 80.0369 254.731 79.8744C254.987 79.6061 255.262 79.8941 255.606 79.8104C255.387 79.6997 255.247 79.6283 255.083 79.5446C255.119 79.296 255.151 79.04 255.193 78.784C255.289 78.1908 255.791 77.925 256.341 78.176C256.466 78.2326 256.584 78.3016 256.737 78.3803C256.99 77.7108 257.369 77.1274 257.833 76.5982C257.983 76.4259 258.138 76.3226 258.384 76.3472C258.571 76.3644 258.701 76.4309 258.789 76.5933C259.055 77.0905 259.362 77.573 259.365 78.176C259.451 78.2056 259.519 78.245 259.591 78.2474C259.871 78.2622 260.018 78.4369 260.045 78.6806C260.082 79.0252 260.301 79.3625 260.026 79.7317C259.927 79.8621 260.011 80.1304 260.011 80.3618C259.864 80.3372 259.768 80.32 259.669 80.3027C259.588 80.7039 259.591 80.7532 259.898 80.8196C260.335 80.9132 260.495 81.2504 260.535 81.6048C260.638 82.5377 260.849 83.4411 261.129 84.3321C261.183 84.502 261.179 84.694 261.188 84.8786C261.238 85.9936 261.282 87.1111 261.326 88.2262C261.329 88.2729 261.326 88.3172 261.326 88.364C261.333 88.8982 261.351 89.4298 261.346 89.964C261.343 90.4366 261.311 90.9067 261.304 91.3793C261.302 91.5393 261.333 91.7018 261.353 91.8814C261.665 91.8667 261.918 91.8987 262.14 92.1054C262.272 92.2285 262.368 92.391 262.275 92.4919C262.046 92.743 262.255 93.0383 262.127 93.3066C262.009 93.5552 262.032 93.8728 262 94.1608C261.987 94.2641 261.997 94.3725 261.997 94.53C262.204 94.5669 262.408 94.6014 262.609 94.6358C262.953 94.6949 262.975 94.722 263 95.1552C262.646 95.2069 262.636 95.4924 262.634 95.773C262.629 96.6616 262.629 97.5502 262.626 98.4388C262.626 98.6037 262.626 98.7662 262.626 98.9828C262.376 98.9828 262.181 98.9828 261.987 98.9828C233.25 98.9828 204.513 98.9828 175.776 98.9828C133.795 98.9828 91.811 98.9828 49.8298 98.9828C49.6012 98.9828 49.3726 98.9729 49.144 98.9483C49.0235 98.936 48.908 98.8892 48.9031 98.7243C48.9006 98.5816 48.9744 98.5668 49.0924 98.5299C49.3726 98.4412 49.2497 98.1828 49.3431 97.9366C48.6573 98.0499 48.5663 97.4419 48.1214 97.1071C48.4238 97.0604 48.6278 97.0234 48.8343 96.9988C49.4414 96.925 49.5569 96.8191 49.5643 96.2284C49.579 95.234 49.5987 94.2371 49.5643 93.2451C49.5446 92.6839 49.4168 92.1276 49.3308 91.5368C49.0481 91.591 48.7728 91.6427 48.5 91.6944C48.4533 91.6033 48.4115 91.5245 48.3574 91.4187C48.3205 91.4728 48.2861 91.4999 48.2763 91.5344C48.1853 91.8544 48.1091 91.8913 47.8609 91.6993C47.7281 91.5984 47.5806 91.495 47.4971 91.3572C47.2857 91.0175 47.3373 90.6876 47.6642 90.3898C47.5512 90.2692 47.4504 90.1634 47.3373 90.0452C46.7424 90.7639 46.445 91.5738 46.2803 92.4377C46.2607 92.546 46.3098 92.6691 46.3393 92.7848C46.3541 92.8414 46.4008 92.8907 46.4229 92.9473C46.6269 93.4371 46.5827 93.6242 46.1574 94.0032C46.2213 94.0746 46.273 94.1878 46.3516 94.2149C46.595 94.2961 46.6613 94.4931 46.7129 94.7023C46.8162 95.1257 46.858 95.5416 46.6318 95.9478C46.5679 96.061 46.5507 96.2013 46.4868 96.4056C47.0522 96.3687 47.5585 96.3342 48.1288 96.2948C48.0231 96.8561 47.4922 96.9053 47.2365 97.2204C47.2144 97.3804 47.1874 97.5551 47.1701 97.7299C47.1652 97.7767 47.1947 97.8259 47.1972 97.8751C47.2021 97.9686 47.2193 98.0671 47.1947 98.1557C47.121 98.4117 47.03 98.6628 46.9317 98.9631C44.8153 98.9631 42.6227 98.9631 40.4154 98.9631C40.4154 98.7489 40.4154 98.5569 40.4154 98.3649C39.941 98.2271 39.914 98.2345 39.6632 98.616C39.7173 98.7095 39.7763 98.808 39.8623 98.9582C39.4691 98.9582 39.1298 98.9582 38.7538 98.9582C38.7538 98.9138 38.7439 98.8572 38.7562 98.8055C38.8103 98.5323 38.7243 98.3748 38.4662 98.3157C38.2892 98.2763 38.1073 98.2591 37.9082 98.2296C37.8148 97.9046 37.8566 97.5896 37.8861 97.272C37.9205 96.9151 37.8295 96.7551 37.5641 96.6345C37.3404 96.5336 37.2273 96.5828 37.1634 96.8265C37.0479 97.272 36.9594 97.7176 37.0233 98.1853C37.0552 98.424 37.0503 98.6702 37.0651 98.9729C36.7554 98.9803 36.4727 98.9902 36.19 98.9926C35.9024 98.9951 35.6124 98.9926 35.2928 98.9926C35.2707 98.7711 35.251 98.5791 35.2338 98.3994C35.0396 98.2862 34.8602 98.1803 34.6611 98.0622C34.8381 97.7939 34.9929 97.56 35.1724 97.2893C34.6513 97.0825 34.2113 97.2597 33.6656 97.4419C34.3145 97.8234 34.4276 98.3132 34.2113 98.936C32.3063 99.0566 30.416 98.9557 28.5454 99C28.4152 98.84 28.307 98.7046 28.1816 98.5495C28.2578 98.5028 28.3168 98.4437 28.3832 98.4339C28.5553 98.4117 28.6167 98.3108 28.6241 98.1557C28.6339 97.9293 28.6708 97.7003 28.6487 97.4764C28.6192 97.1982 28.4373 97.1317 28.1989 97.277C28.1595 97.3016 28.1276 97.3336 28.0907 97.3607C28.0194 97.4148 27.9457 97.469 27.8498 97.5403C27.9997 97.72 28.1153 97.8554 28.2283 97.9908C27.9924 98.5102 27.8203 98.584 27.4123 98.3526C27.1026 98.1754 27.1026 98.0966 27.4418 97.5945C27.2279 97.4345 27.0092 97.2745 26.7928 97.1145C26.7314 97.0702 26.6331 97.0358 26.6134 96.9767C26.4733 96.5582 26.1513 96.6862 25.8342 96.6862C25.7826 96.9644 25.6744 97.1908 25.3475 97.1933C25.2959 97.1933 25.2049 97.2376 25.1976 97.277C25.1484 97.5379 24.9296 97.5871 24.792 97.6216C24.47 98.0105 24.8657 98.2468 24.8977 98.5495C24.7256 98.6899 24.4257 98.6308 24.3643 98.9286C24.3544 98.9729 24.1136 98.9852 23.9808 98.9877C22.8796 98.9926 21.7784 98.9902 20.6772 98.9902C19.8513 98.9902 19.0254 98.9902 18.1995 98.9902C18.0348 98.9902 17.8725 99.0148 17.7668 98.8203C17.6685 98.6406 17.4842 98.6923 17.317 98.7169C17.317 98.8105 17.317 98.8818 17.317 98.9508C17.2851 98.9631 17.2605 98.9852 17.2335 98.9852C16.8402 98.9852 16.4567 99.0221 16.0708 98.84C15.8397 98.7317 15.5374 98.7735 15.2498 98.7465C15.1957 98.3526 15.1294 97.9933 15.0999 97.629C15.0753 97.3311 15.0433 97.053 14.8073 96.8364C14.7606 96.7921 14.7533 96.7035 14.7115 96.5878C14.9106 96.5681 15.0728 96.5508 15.235 96.5385C15.3874 96.5262 15.5423 96.5312 15.6922 96.509C16.0732 96.4499 16.1839 96.2875 16.1175 95.9035C16.0192 95.3324 15.9208 94.7589 15.8176 94.1878C15.7242 93.6611 15.621 93.1368 15.5374 92.61C15.5054 92.4156 15.53 92.2137 15.5104 92.0144C15.5005 91.9011 15.4563 91.7904 15.4219 91.6821C15.4145 91.655 15.358 91.6279 15.3629 91.6156C15.5251 91.2267 15.1441 91.015 15.0753 90.7049C14.446 90.791 13.9446 91.335 13.8143 92.0882C14.0109 92.2654 14.3428 92.3245 14.3919 92.6716C14.4337 92.9768 14.3624 93.1122 13.9839 93.3263C14.0896 93.7226 14.2445 94.1091 14.2813 94.5054C14.3231 94.941 13.8807 95.1577 13.6398 95.549C13.9937 95.6204 14.3084 95.6844 14.6427 95.7533C14.5271 96.0389 14.3477 96.1915 14.1191 96.3022C13.9962 96.3613 13.8684 96.4204 13.7602 96.5041C13.4628 96.7355 13.5292 97.0308 13.9126 97.2228C13.92 97.7643 13.3718 97.6068 13.0892 97.8825C13.1949 98.013 13.3006 98.141 13.4308 98.3009C13.2907 98.5151 13.1432 98.7415 12.9933 98.9729C12.8802 98.9803 12.7745 98.9926 12.6688 98.9926C11.0023 98.9926 9.33571 98.9951 7.66669 98.9926C7.46021 98.9926 7.20703 99.064 7.23407 98.6948C6.99564 98.808 6.7867 98.9975 6.63676 98.9582C6.40816 98.9015 6.21643 98.6849 6.0075 98.5348C6.03453 98.4388 6.04682 98.3822 6.06403 98.328C6.21151 97.9071 6.21151 97.9046 5.81577 97.6954C5.69532 97.6314 5.57734 97.565 5.46672 97.5059C5.52326 97.2721 5.57488 97.0579 5.62158 96.8634C5.05869 96.3933 4.47121 96.0758 3.77066 95.9773C3.77804 95.9429 3.78295 95.9084 3.79033 95.8739C3.88373 95.8542 3.97468 95.8223 4.06809 95.8149C4.46383 95.7903 4.86204 95.7681 5.25779 95.7607C5.49868 95.7558 5.63633 95.6598 5.63633 95.4087C5.63633 95.1823 5.63633 94.9534 5.61666 94.7269C5.5503 93.89 5.47901 93.0531 5.40773 92.2137C5.38315 91.9405 5.35611 91.6747 5.09064 91.495C4.96774 91.4113 4.97511 91.2685 5.03165 91.1209C5.20371 90.663 5.19879 90.6606 4.85467 90.3873C4.894 89.4791 5.07098 88.5831 4.69489 87.7019C3.2938 87.6403 1.92466 87.5788 0.528483 87.5173C0.486696 87.2022 0.324464 87.0151 0 87.0225C0 86.993 0 86.9635 0 86.9315ZM80.6268 4.00726C80.7227 5.07553 80.5236 6.09704 80.7325 7.11362C80.7866 7.37946 80.8308 7.65515 80.6882 7.92098C80.6489 7.99483 80.6514 8.09821 80.6489 8.18928C80.6292 8.69388 80.6194 9.19848 80.5948 9.70308C80.5801 9.98369 80.5973 10.2446 80.7521 10.4932C80.8677 10.6803 80.9291 10.924 80.762 11.0963C80.5727 11.2907 80.5899 11.5049 80.585 11.7313C80.5801 12.1596 80.558 12.5879 80.5703 13.0162C80.5776 13.2697 80.617 13.5282 80.6809 13.7743C80.7743 14.1362 80.8431 14.4832 80.644 14.8377C80.5875 14.9362 80.5899 15.0715 80.5875 15.1921C80.5801 15.5294 80.5825 15.8666 80.585 16.2013C80.5875 16.5976 80.5703 16.9865 80.7374 17.373C80.8136 17.5478 80.8308 17.8431 80.7325 17.9785C80.5383 18.2468 80.5555 18.5176 80.558 18.8031C80.5629 19.3397 80.6047 19.8763 80.5776 20.408C80.558 20.7846 80.7325 20.9273 81.1012 21.0357C81.3028 21.0947 81.524 21.0873 81.7354 21.107C82.1827 21.1464 82.5072 20.915 82.5908 20.4818C82.6547 20.1421 82.6252 19.8148 82.4064 19.5219C82.3302 19.4185 82.2467 19.2732 82.2565 19.1576C82.2934 18.7539 82.4187 18.36 82.7481 18.1041C83.1291 17.8062 83.5003 17.4764 83.9894 17.3508C84.1 17.3238 84.2033 17.2672 84.3213 17.2204C84.073 16.7281 84.0361 16.285 84.4712 15.9035C84.5031 15.8764 84.5204 15.8272 84.5277 15.7854C84.5843 15.4924 84.8202 15.3718 85.0439 15.2438C85.1816 15.1651 85.3291 15.1011 85.4987 15.0149C85.4003 14.9288 85.3364 14.8648 85.2627 14.8106C85.1889 14.7565 85.1029 14.7171 85.0341 14.658C84.8227 14.4759 84.8522 14.3306 85.1127 14.2248C85.2651 14.1633 85.42 14.1042 85.6707 14.0057C85.4348 13.9048 85.3119 13.8531 85.1889 13.8014C84.8079 13.639 84.5671 13.3584 84.5056 12.9498C84.4442 12.5411 84.6973 12.2901 85.007 12.0956C85.2234 11.9602 85.4544 11.8519 85.7617 11.6895C85.5527 11.6009 85.4102 11.5319 85.2627 11.4803C85.1324 11.436 84.9505 11.4113 84.9874 11.2415C85.0095 11.1381 85.1521 11.0421 85.2602 10.983C85.3856 10.9141 85.5331 10.887 85.7002 10.8329C85.4593 10.6631 85.2578 10.5252 85.0636 10.38C84.9186 10.2717 84.8694 10.1338 84.8841 9.94184C84.9161 9.54063 85.0587 9.2354 85.4544 9.08526C85.5306 9.05572 85.5994 9.00649 85.6978 8.94987C85.5183 8.83419 85.3708 8.74311 85.1472 8.60035C85.4028 8.47481 85.5798 8.3862 85.8059 8.27543C85.4888 8.05144 85.0513 7.98991 85.039 7.46561C85.0267 6.91425 85.4298 6.8084 85.8158 6.61395C85.6388 6.49826 85.5011 6.40719 85.3192 6.28657C85.5257 6.20042 85.6609 6.14627 85.8723 6.05766C85.334 5.70813 85.5675 5.33645 85.7936 4.98446C85.4397 4.53155 84.9776 4.30264 84.4786 4.14264C83.6084 3.8645 82.7112 3.81527 81.8042 3.88173C81.4281 3.91372 81.052 3.96295 80.6268 4.00726ZM48.3377 91.1799C48.6769 91.1184 48.9621 91.0642 49.289 91.0052C49.2546 90.604 49.0924 90.252 48.7974 89.8901C48.6032 90.0895 48.4336 90.2643 48.2566 90.4464C48.3844 90.5892 48.495 90.7123 48.613 90.8427C48.5245 90.951 48.441 91.0519 48.3377 91.1799ZM234.477 40.624C234.477 40.8578 234.477 41.0867 234.477 41.3353C234.909 41.04 234.904 40.9563 234.477 40.624Z" fill="#D1EAF4"/>
</svg>
